<svg width="38" height="46" viewBox="0 0 38 46" fill="none" xmlns="http://www.w3.org/2000/svg">
<path d="M17.963 22.1265L0.844238 41.6906C0.844881 41.6946 0.846168 41.698 0.846811 41.7021C1.3718 43.8263 3.1738 45.3906 5.31251 45.3906C6.16745 45.3906 6.97012 45.1417 7.65848 44.7048L7.71315 44.6704L26.9826 32.6979L17.963 22.1265Z" fill="#EB3131"/>
<path d="M35.2822 18.7949L35.2658 18.7828L26.9467 13.59L17.5742 22.5701L26.9793 32.6956L35.2545 27.5544C36.7053 26.711 37.6902 25.0642 37.6902 23.1651C37.6902 21.2797 36.7185 19.641 35.2822 18.7949Z" fill="#F6B60B"/>
<path d="M0.84401 4.55927C0.741103 4.96786 0.687012 5.39584 0.687012 5.84027V40.4107C0.687012 40.8543 0.740459 41.2838 0.844653 41.6909L18.5526 22.6274L0.84401 4.55927Z" fill="#5778C5"/>
<path d="M18.0899 23.1251L26.9506 13.5872L7.70301 1.57147C7.0034 1.12028 6.1869 0.859894 5.31315 0.859894C3.17445 0.859894 1.37003 2.42692 0.844881 4.55386C0.844238 4.55593 0.844238 4.55732 0.844238 4.55922L18.0899 23.1251Z" fill="#3BAD49"/>
</svg>
