<svg width="29" height="36" viewBox="0 0 29 36" fill="none" xmlns="http://www.w3.org/2000/svg">
<path d="M24.2233 18.8257C24.2405 17.4902 24.5961 16.1808 25.257 15.0193C25.918 13.8578 26.8627 12.8819 28.0033 12.1824C27.2787 11.1501 26.3228 10.3006 25.2114 9.70135C24.1001 9.10207 22.864 8.76952 21.6013 8.73011C18.9077 8.44809 16.2964 10.3378 14.9239 10.3378C13.5247 10.3378 11.4114 8.75811 9.13567 8.80481C7.66369 8.85225 6.22912 9.27922 4.97175 10.0441C3.71438 10.809 2.67708 11.8857 1.96093 13.1694C-1.14128 18.5269 1.17269 26.4006 4.14435 30.7311C5.63113 32.8517 7.36876 35.2204 9.6424 35.1364C11.8673 35.0444 12.6983 33.7212 15.3839 33.7212C18.0446 33.7212 18.8242 35.1364 21.144 35.083C23.5314 35.0443 25.0356 32.953 26.4702 30.8124C27.5385 29.3014 28.3605 27.6314 28.9058 25.8644C27.5188 25.2792 26.3352 24.2997 25.5025 23.048C24.6698 21.7964 24.2249 20.3279 24.2233 18.8257Z" fill="#04113A"/>
<path d="M19.8419 5.88309C21.1436 4.32435 21.7849 2.32087 21.6296 0.298096C19.6409 0.506448 17.8038 1.45454 16.4845 2.95347C15.8395 3.68574 15.3454 4.53763 15.0307 5.46047C14.7159 6.3833 14.5865 7.35897 14.65 8.3317C15.6447 8.34191 16.6288 8.12685 17.5281 7.70271C18.4274 7.27857 19.2186 6.65641 19.8419 5.88309Z" fill="#04113A"/>
</svg>
