<svg width="201" height="200" viewBox="0 0 201 200" fill="none" xmlns="http://www.w3.org/2000/svg">
<path d="M162.9 125.2C162.9 125.2 170.78 79.0401 164.18 72.4801C157.58 65.9201 127.26 64.7201 120.5 66.4801C113.74 68.2401 108.5 114.96 108.5 114.96L162.9 125.2Z" fill="#231F20"/>
<path d="M162.9 125.48H162.86L108.46 115.28C108.3 115.24 108.22 115.12 108.22 114.96C108.42 113.04 113.5 68.0001 120.42 66.2401C126.74 64.6001 157.46 65.5201 164.38 72.3201C171.02 78.8801 163.54 123.4 163.18 125.28C163.18 125.36 163.14 125.4 163.06 125.48C163.02 125.44 162.94 125.48 162.9 125.48ZM108.82 114.76L162.7 124.88C163.34 121 170.18 78.8001 163.98 72.6801C161.18 69.9201 153.3 67.7201 142.38 66.6401C133.66 65.8001 124.06 65.8401 120.58 66.7601C118.74 67.2401 115.78 71.9201 112.26 91.4401C110.26 102.24 109.02 112.96 108.82 114.76Z" fill="#231F20"/>
<path d="M154.82 91.5602C154.62 91.5602 154.54 91.4002 154.54 91.2402C155.66 78.2402 160.1 73.6002 160.3 73.4002C160.38 73.2802 160.58 73.2402 160.7 73.3202C160.82 73.4002 160.86 73.6002 160.78 73.7202C160.74 73.7602 160.74 73.7602 160.7 73.8002C160.66 73.8402 156.22 78.5202 155.1 91.2802C155.06 91.4402 154.94 91.5602 154.82 91.5602Z" fill="white"/>
<path d="M150.26 74.48C152.9 84.12 146.66 129.52 146.66 129.52L110.18 115.24C110.18 115.24 117.66 106.24 108.7 87.36C105.02 79.64 108.82 75.6 111.34 73.44C113.54 71.64 147.62 64.8 150.26 74.48Z" fill="#294A75"/>
<path d="M104.78 158.08L183.5 139.72V127.04L104.78 135.12V158.08Z" fill="white"/>
<path d="M104.78 158.36C104.7 158.36 104.66 158.32 104.62 158.32C104.54 158.28 104.5 158.2 104.5 158.08V135.12C104.5 134.96 104.62 134.84 104.74 134.84L183.5 126.76C183.58 126.76 183.66 126.76 183.74 126.84C183.82 126.88 183.82 126.96 183.82 127.04V139.72C183.82 139.84 183.74 139.96 183.58 140L104.82 158.36H104.78ZM105.06 135.4V157.72L183.22 139.52V127.4L105.06 135.4Z" fill="#231F20"/>
<path d="M18.4199 114.2V128.04L104.78 158.08V130.56L18.4199 114.2Z" fill="white"/>
<path d="M104.78 158.36C104.74 158.36 104.7 158.36 104.7 158.36L18.3396 128.32C18.2196 128.28 18.1396 128.16 18.1396 128.04V114.2C18.1396 114.12 18.1796 114.04 18.2596 113.96C18.3396 113.92 18.4196 113.88 18.4996 113.92L104.86 130.28C104.98 130.32 105.1 130.44 105.1 130.56V158.08C105.1 158.16 105.06 158.28 104.98 158.32C104.9 158.36 104.82 158.36 104.78 158.36ZM18.6996 127.84L104.5 157.68V130.8L18.6996 114.56V127.84Z" fill="#231F20"/>
<path d="M186.34 124.8V129.52L105.3 146.4L14.6602 115.36V111.6L186.34 124.8Z" fill="white"/>
<path d="M105.3 146.68C105.26 146.68 105.22 146.68 105.22 146.68L14.5799 115.64C14.4599 115.6 14.3799 115.48 14.3799 115.36V111.6C14.3799 111.52 14.4199 111.44 14.4599 111.4C14.4999 111.36 14.5799 111.32 14.6599 111.32L186.3 124.52C186.46 124.52 186.54 124.64 186.54 124.8V129.52C186.54 129.64 186.46 129.76 186.34 129.8L105.3 146.64V146.68ZM14.9399 115.16L105.3 146.08L186.06 129.28V125.04L14.9399 111.88V115.16Z" fill="#231F20"/>
<path d="M73.7002 101.24L186.34 124.8L105.3 140.4L14.6602 111.6L73.7002 101.24Z" fill="white"/>
<path d="M105.3 140.68C105.26 140.68 105.26 140.68 105.22 140.68L14.6203 111.88C14.4603 111.84 14.3803 111.68 14.4203 111.52C14.4603 111.4 14.5404 111.32 14.6604 111.32L73.7003 100.96C73.7403 100.96 73.7803 100.96 73.8203 100.96L186.46 124.52C186.58 124.56 186.7 124.68 186.7 124.8C186.7 124.92 186.58 125.04 186.46 125.08L105.42 140.68H105.3ZM15.9003 111.68L105.3 140.08L184.86 124.76L73.7003 101.52L15.9003 111.68Z" fill="#231F20"/>
<path d="M105.3 146.68C105.14 146.68 105.02 146.56 105.02 146.4V140.4C105.02 140.24 105.14 140.12 105.3 140.12C105.46 140.12 105.58 140.24 105.58 140.4V146.4C105.58 146.56 105.46 146.68 105.3 146.68Z" fill="#231F20"/>
<path d="M110.22 117.64C110.22 117.64 82.7796 109 82.2996 109C81.8196 109 47.1396 114.96 47.1396 114.96L75.9397 124.8L110.22 117.64Z" fill="white"/>
<path d="M75.9798 125.08C75.9398 125.08 75.8998 125.08 75.8998 125.08L47.0998 115.24C46.9398 115.2 46.8598 115.04 46.8998 114.88C46.9398 114.76 47.0198 114.68 47.1398 114.68C50.6998 114.08 81.8598 108.72 82.3398 108.72C82.8198 108.72 103.9 115.36 110.34 117.4C110.5 117.44 110.58 117.6 110.54 117.76C110.5 117.84 110.42 117.92 110.34 117.96L76.0598 125.12C76.0198 125.08 75.9798 125.08 75.9798 125.08ZM48.3398 115.04L75.9798 124.48L109.1 117.56C100.98 115 82.9798 109.36 82.2998 109.24C81.7398 109.32 60.4598 112.96 48.3398 115.04Z" fill="#231F20"/>
<path d="M72.1 121.24C72.06 121.24 72.02 121.24 71.98 121.2L56.7 114.32C56.58 114.28 56.54 114.16 56.54 114.04C56.54 113.92 56.66 113.84 56.78 113.8L74.62 111.28C74.66 111.28 74.7 111.28 74.78 111.28L90.66 118.04C90.78 118.08 90.86 118.2 90.82 118.32C90.82 118.44 90.7 118.56 90.58 118.56L72.1 121.24ZM57.82 114.24L72.14 120.68L89.54 118.2L74.66 111.88L57.82 114.24Z" fill="#D1D3D4"/>
<path d="M75.9795 124.8L110.379 120.72L110.259 117.64L75.9795 122.24V124.8Z" fill="white"/>
<path d="M75.9802 125.08C75.9002 125.08 75.8602 125.04 75.7802 125C75.7402 124.96 75.7002 124.88 75.7002 124.8V122.24C75.7002 122.08 75.8202 121.96 75.9402 121.96L110.22 117.36C110.3 117.36 110.38 117.36 110.46 117.44C110.54 117.48 110.54 117.56 110.58 117.64L110.74 120.72C110.74 120.88 110.62 121 110.5 121.04L76.0602 125.08H75.9802ZM76.2602 122.48V124.48L110.1 120.48L109.98 117.96L76.2602 122.48Z" fill="#231F20"/>
<path d="M75.9802 124.8L69.6602 78.96L40.6602 77.48L47.1802 114.92L75.9802 124.8Z" fill="white"/>
<path d="M75.9799 125.08C75.9399 125.08 75.8999 125.08 75.8999 125.08L47.0999 115.24C46.9799 115.2 46.9399 115.12 46.8999 115L40.3799 77.56C40.3799 77.48 40.3799 77.4 40.4599 77.32C40.4999 77.24 40.6199 77.24 40.6999 77.24L69.7399 78.72C69.8599 78.72 69.9799 78.84 70.0199 78.96L76.3399 124.76C76.3399 124.88 76.2999 124.96 76.2199 125.04C76.0999 125.04 76.0599 125.08 75.9799 125.08ZM47.4199 114.72L75.6199 124.36L69.4199 79.24L41.0199 77.8L47.4199 114.72Z" fill="#231F20"/>
<path d="M90.9396 116.56C90.8996 116.56 90.8596 116.56 90.8596 116.56L81.2996 113.2C81.1796 113.16 81.0996 113.04 81.0996 112.92C81.0996 112.8 81.2196 112.68 81.3396 112.68L86.7796 111.84C86.8196 111.84 86.8596 111.84 86.8996 111.84L96.6196 115.4C96.7396 115.44 96.8196 115.56 96.7796 115.68C96.7796 115.8 96.6596 115.92 96.5396 115.92L90.9396 116.56ZM82.5396 113.04L90.9796 116L95.3396 115.52L86.8196 112.4L82.5396 113.04Z" fill="#D1D3D4"/>
<path d="M90.9803 71.8402C90.9803 71.8402 91.4203 65.4002 90.9803 63.6002C90.5403 61.8002 88.0203 57.5202 87.1803 57.8402C86.3403 58.1602 86.2203 59.4002 87.1803 61.0802C87.1803 61.0802 81.8203 56.7202 79.7803 56.8002C77.7403 56.8802 76.5803 59.5202 76.9003 60.7602C77.2203 62.0002 81.9403 64.2002 82.2603 65.2802C82.5803 66.3602 83.4203 73.6002 83.4203 73.6002" fill="white"/>
<path d="M83.4204 73.8801C83.2604 73.8801 83.1804 73.7601 83.1404 73.6401C83.1404 73.5601 82.3004 66.4001 81.9804 65.3601C81.8604 64.9601 80.6204 64.1201 79.6204 63.4801C78.1804 62.5201 76.8204 61.6401 76.6204 60.8401C76.4204 60.0401 76.7404 58.8001 77.4204 57.8801C77.9404 57.1201 78.8204 56.6001 79.7404 56.5601C81.3804 56.5201 84.7804 58.9601 86.4204 60.2001C86.1804 59.6401 86.1404 58.9601 86.3004 58.3601C86.4204 58.0001 86.7004 57.7201 87.0604 57.6001C87.2604 57.5201 87.4604 57.5601 87.6204 57.6801C88.7804 58.2801 90.8604 62.0401 91.2204 63.6001C91.6604 65.4001 91.2604 71.6401 91.2204 71.9201C91.2204 72.0801 91.0604 72.2001 90.9404 72.1601C90.7804 72.1601 90.6604 72.0001 90.6604 71.8801C90.6604 71.8001 91.0604 65.4801 90.6604 63.7201C90.2204 61.8001 87.8204 58.0801 87.2204 58.1601C87.0204 58.2401 86.9004 58.4001 86.8204 58.6001C86.6204 59.1601 86.8204 60.0401 87.3804 61.0401C87.4604 61.1601 87.4204 61.3601 87.2604 61.4401C87.1404 61.4801 87.0204 61.4801 86.9404 61.4001C85.4604 60.2001 81.3404 57.1201 79.7004 57.1601C78.9404 57.2401 78.2204 57.6401 77.7804 58.2801C77.2204 59.0401 76.9004 60.1201 77.0604 60.8001C77.2204 61.3601 78.6604 62.3201 79.8204 63.0801C81.3404 64.0801 82.2604 64.7201 82.4204 65.2801C82.7404 66.3601 83.5404 73.3601 83.5804 73.6401C83.7004 73.7201 83.5804 73.8801 83.4204 73.8801Z" fill="#231F20"/>
<path d="M150.9 81.0002L152.9 97.2002C154.1 107 154.94 116.4 151.14 118.76C147.34 121.12 114.74 121.2 114.74 121.2C114.74 121.2 115.78 116.88 115.18 112.8C115.18 112.8 142.06 108.96 141.78 106.28C141.5 103.6 132.98 85.3202 132.82 81.0402C132.66 76.7602 145.7 77.9202 150.9 81.0002Z" fill="#294A75"/>
<path d="M111.38 73.4401C111.38 73.4401 93.3804 88.0801 93.5004 85.3201C93.5804 83.8801 93.1804 69.4001 93.1804 69.4001L81.9404 69.8801C81.9404 69.8801 77.5004 93.6001 81.3804 99.4401C86.3004 106.84 93.3804 104.44 102.86 98.9201C114.98 91.8401 117.98 88.8801 117.98 88.8801L111.38 73.4401Z" fill="#294A75"/>
<path d="M115.18 112.84C115.18 112.84 109.58 113.08 108.82 112C108.06 110.92 106.86 109.64 106.14 109.52C105.42 109.4 96.6601 110.4 97.1401 111.32C97.6201 112.24 101.46 111.44 101.46 111.44C101.46 111.44 98.1801 112.28 98.3001 113.4C98.4201 114.52 99.2201 114.36 100.46 113.96C101.7 113.56 104.74 112.8 104.74 112.8C104.74 112.8 100.1 114.96 100.02 116.08C99.9401 117.2 102.18 116.64 105.34 114.92C105.34 114.92 101.66 117.24 102.78 117.92C103.94 118.6 106.62 117.2 106.62 117.2C106.62 117.2 107.9 119.24 109.58 119.76C111.26 120.28 114.86 120.24 114.86 120.24C114.86 120.24 116.66 116.44 115.18 112.84Z" fill="white"/>
<path d="M114.74 120.48C113.94 120.48 111.1 120.44 109.58 120C108.06 119.56 106.98 118.12 106.58 117.56C105.86 117.92 103.78 118.8 102.7 118.16C102.5 118.04 102.34 117.8 102.34 117.56C102.42 117.08 102.7 116.64 103.06 116.32C101.86 116.8 100.66 117.12 100.1 116.76C99.8604 116.6 99.7404 116.32 99.7804 116.04C99.8204 115.32 101.1 114.44 102.38 113.68C101.7 113.88 101.02 114.04 100.58 114.2C99.7404 114.48 99.0204 114.68 98.5404 114.36C98.2204 114.12 98.0604 113.8 98.0204 113.4C97.9404 112.84 98.4204 112.4 99.0604 112.04C98.1004 112.08 97.1404 111.96 96.8604 111.44C96.7804 111.28 96.7804 111.08 96.9004 110.96C97.6204 109.92 105.46 109.12 106.14 109.24C107.06 109.4 108.42 111.04 108.98 111.84C109.42 112.48 112.82 112.64 115.06 112.56C115.18 112.56 115.3 112.64 115.34 112.76C116.86 116.44 115.18 120.2 115.1 120.36C115.06 120.48 114.94 120.52 114.86 120.52L114.74 120.48ZM106.7 116.88C106.78 116.88 106.9 116.92 106.94 117C106.94 117 108.18 118.96 109.74 119.44C111.18 119.88 113.98 119.88 114.74 119.88C115.02 119.12 116.1 116.08 114.94 113.12C113.62 113.16 109.3 113.24 108.54 112.16C107.66 110.92 106.58 109.88 106.06 109.76C105.18 109.6 98.2204 110.56 97.4204 111.2C97.8204 111.56 99.7404 111.44 101.38 111.12C101.54 111.08 101.7 111.2 101.7 111.32C101.74 111.48 101.66 111.64 101.5 111.68C100.26 112 98.5004 112.72 98.5804 113.28C98.5804 113.48 98.6604 113.68 98.8204 113.84C99.1004 114 99.7804 113.84 100.38 113.64C101.62 113.24 104.58 112.52 104.7 112.48C104.86 112.44 105.02 112.52 105.06 112.64C105.1 112.8 105.02 112.96 104.9 113C102.74 114 100.38 115.44 100.34 116.04C100.34 116.2 100.38 116.24 100.42 116.24C100.74 116.44 102.1 116.32 105.26 114.6C105.42 114.52 105.58 114.56 105.66 114.72C105.74 114.84 105.7 115.04 105.58 115.12C104.3 115.92 102.94 117.08 102.94 117.52C102.94 117.56 102.94 117.56 103.02 117.64C103.82 118.12 105.86 117.28 106.58 116.88C106.62 116.88 106.66 116.88 106.7 116.88Z" fill="#231F20"/>
<path d="M119.381 112.48C119.221 112.48 119.101 112.36 119.101 112.2C119.101 112.04 119.221 111.92 119.341 111.92L141.261 108.12C139.821 104.32 138.621 100.44 137.621 96.52C135.421 87.68 135.061 81 136.621 76.56C136.661 76.4 136.821 76.32 136.981 76.36C137.141 76.4 137.221 76.5601 137.181 76.7201C137.181 76.7201 137.181 76.72 137.181 76.76C133.581 87.04 141.861 108.04 141.941 108.24C142.021 108.4 141.941 108.56 141.781 108.6C141.741 108.6 141.741 108.6 141.701 108.64L119.421 112.52L119.381 112.48Z" fill="#231F20"/>
<path d="M113.1 103.52C112.94 103.52 112.82 103.4 112.82 103.24C112.62 99.2 111.54 96 110.58 93.24C109.94 91.32 109.34 89.68 109.22 88.12C109.18 87.72 109.14 87.36 109.1 86.96C108.78 83.84 108.54 81.36 110.38 75.8C110.38 75.64 110.54 75.52 110.7 75.56C110.86 75.56 110.98 75.72 110.94 75.88C110.94 75.92 110.94 75.96 110.9 76C109.1 81.44 109.3 83.72 109.62 86.92C109.66 87.28 109.7 87.68 109.74 88.08C109.86 89.56 110.42 91.2 111.1 93.08C112.1 95.92 113.18 99.12 113.38 103.24C113.38 103.36 113.26 103.52 113.1 103.52Z" fill="#231F20"/>
<path d="M122.221 42.7199C122.221 42.7199 116.301 42.9199 114.581 45.7999C112.861 48.6799 113.061 52.8799 110.861 55.6399C108.661 58.3999 105.901 64.2799 107.301 67.3199C108.701 70.3599 123.461 71.1199 131.181 67.6399C138.901 64.1599 139.301 57.8799 138.701 53.9199C138.101 49.9599 135.261 39.0799 122.221 42.7199Z" fill="white"/>
<path d="M118.14 70.2001C117.7 70.2001 117.3 70.2001 116.86 70.1601C112.7 70.0401 107.9 69.2401 107.06 67.4001C105.62 64.3201 108.26 58.3601 110.66 55.4401C111.86 53.9601 112.34 52.0001 112.78 50.1201C113.18 48.5601 113.58 46.9201 114.38 45.6001C116.14 42.7201 121.7 42.4001 122.22 42.4001C126.66 41.1601 130.38 41.4801 133.22 43.3601C137.46 46.1201 138.66 51.6001 138.98 53.8001C139.62 58.3201 138.82 64.4001 131.3 67.8401C128.02 69.3201 123.18 70.2001 118.14 70.2001ZM127.1 42.2801C125.46 42.3201 123.86 42.5601 122.3 43.0001H122.22C122.18 43.0001 116.42 43.2401 114.78 45.9201C114.02 47.1601 113.66 48.6801 113.26 50.2801C112.78 52.2401 112.3 54.2401 111.02 55.8001C108.66 58.6801 106.22 64.4001 107.5 67.1601C108.74 69.8001 123.1 70.9201 130.98 67.3201C138.22 64.0401 138.98 58.2001 138.34 53.8801C138.02 51.7201 136.86 46.4801 132.82 43.8401C131.18 42.7601 129.14 42.2001 127.1 42.2801Z" fill="#231F20"/>
<path d="M132.78 75.76C132.78 75.76 127.98 87.52 123.98 87.2C119.98 86.88 120.1 78.12 120.1 78.12L132.78 75.76Z" fill="#231F20"/>
<path d="M124.1 87.48C124.02 87.48 123.98 87.48 123.9 87.48C119.7 87.12 119.74 78.48 119.74 78.12C119.74 78 119.82 77.88 119.98 77.84L132.66 75.48C132.78 75.48 132.86 75.48 132.94 75.56C133.02 75.64 133.02 75.76 132.98 75.84C132.82 76.36 128.22 87.48 124.1 87.48ZM120.34 78.36C120.34 79.72 120.62 86.64 123.98 86.92C126.94 87.16 130.82 79.64 132.3 76.12L120.34 78.36Z" fill="#231F20"/>
<path d="M121.14 69.92L120.06 78.12C120.06 78.12 121.42 81.48 126.9 80.96C130.3 80.64 132.74 75.76 132.74 75.76L133.82 59.72C133.82 59.72 126.22 55.52 121.82 48.24C121.82 48.24 118.22 54.2 115.58 53.64C115.58 53.64 114.74 61.68 115.66 65.8C116.58 69.92 121.14 69.92 121.14 69.92Z" fill="white"/>
<path d="M125.74 81.2802C121.1 81.2802 119.86 78.3602 119.82 78.2002C119.82 78.1602 119.78 78.1202 119.82 78.0402L120.86 70.1602C119.78 70.0402 116.3 69.4402 115.46 65.8402C114.5 61.7602 115.34 53.9202 115.38 53.6002C115.38 53.5202 115.42 53.4402 115.5 53.4002C115.58 53.3602 115.66 53.3202 115.74 53.3602C117.74 53.8002 120.74 49.7202 121.7 48.1202C121.78 48.0002 121.98 47.9602 122.1 48.0402C122.14 48.0402 122.14 48.0802 122.18 48.1202C126.5 55.2402 133.98 59.4402 134.06 59.4802C134.14 59.5202 134.22 59.6402 134.22 59.7602L133.14 75.8002C133.14 75.8402 133.14 75.8802 133.1 75.9202C132.98 76.1202 130.54 80.9202 127.02 81.2802C126.54 81.2802 126.14 81.2802 125.74 81.2802ZM120.38 78.0802C120.58 78.5202 122.06 81.1602 126.9 80.6802C129.94 80.3602 132.22 76.2002 132.5 75.6802L133.58 59.8802C132.5 59.2402 125.94 55.2402 121.86 48.8002C121.02 50.0802 118.22 54.1202 115.86 53.9602C115.7 55.4402 115.14 62.1602 115.98 65.7202C116.86 69.5602 120.98 69.6402 121.14 69.6402C121.22 69.6402 121.3 69.6802 121.34 69.7202C121.38 69.7602 121.42 69.8802 121.42 69.9602L120.38 78.0802Z" fill="#231F20"/>
<path d="M120.58 74.2399C122.46 74.4799 124.38 73.7599 125.62 72.3199C127.82 69.8799 127.3 69.4399 127.3 69.4399C125.3 70.0799 123.18 70.2399 121.14 69.9599L120.58 74.2399Z" fill="#231F20"/>
<path d="M121.261 74.5601C121.021 74.5601 120.781 74.5601 120.541 74.5201C120.381 74.4801 120.301 74.3601 120.301 74.2001L120.861 69.8801C120.861 69.7201 121.021 69.6401 121.181 69.6401C123.221 69.9201 125.261 69.7201 127.221 69.1201C127.301 69.0801 127.421 69.1201 127.501 69.1601C127.581 69.2401 127.741 69.4401 127.541 70.0001C127.341 70.5601 126.741 71.4001 125.821 72.4401C124.701 73.8001 123.021 74.5601 121.261 74.5601ZM120.901 74.0001C122.621 74.1201 124.301 73.4401 125.421 72.1201C126.581 70.8001 126.941 70.1201 127.061 69.8001C125.221 70.3201 123.301 70.4801 121.381 70.2401L120.901 74.0001Z" fill="#231F20"/>
<path d="M122.98 56.96C122.98 56.96 120.34 61.28 121.02 61.96C121.7 62.64 123.58 62.12 123.58 62.12" fill="white"/>
<path d="M122.181 62.6C121.701 62.64 121.181 62.48 120.821 62.16C120.061 61.4 121.901 58.16 122.741 56.8C122.821 56.68 122.981 56.64 123.101 56.68C123.101 56.68 123.101 56.68 123.141 56.68C123.261 56.76 123.341 56.92 123.261 57.08C121.901 59.28 120.981 61.44 121.261 61.76C121.741 62.24 123.061 61.96 123.541 61.84C123.701 61.8 123.861 61.88 123.901 62.04C123.941 62.2 123.861 62.36 123.701 62.4C123.181 62.52 122.701 62.6 122.181 62.6Z" fill="#231F20"/>
<path d="M126.457 57.4702C126.83 57.4237 127.079 56.9595 127.013 56.4334C126.948 55.9073 126.592 55.5185 126.22 55.565C125.847 55.6115 125.598 56.0757 125.664 56.6018C125.729 57.1279 126.085 57.5167 126.457 57.4702Z" fill="#231F20"/>
<path d="M120.465 56.9475C120.561 56.4037 120.34 55.9098 119.97 55.8445C119.6 55.7791 119.222 56.167 119.126 56.7109C119.03 57.2547 119.252 57.7485 119.622 57.8139C119.992 57.8792 120.369 57.4913 120.465 56.9475Z" fill="#231F20"/>
<path d="M122.741 65.8401C121.261 65.9201 119.901 65.0801 119.301 63.7201C119.261 63.6401 119.301 63.5201 119.341 63.4801C119.381 63.4001 119.461 63.3601 119.581 63.3601C125.941 63.3601 125.981 63.4001 126.061 63.5201C126.101 63.5601 126.141 63.6401 126.141 63.7201C126.141 63.7601 126.101 63.8001 126.101 63.8801C126.061 63.9601 124.741 65.7601 123.141 65.8801H122.741V65.8401ZM120.021 63.9201C120.381 64.4801 121.261 65.4401 123.061 65.2801C123.981 65.2001 124.821 64.4401 125.261 63.9201C124.221 63.9201 121.821 63.9201 120.021 63.9201Z" fill="#231F20"/>
<path d="M134.821 57.0001C134.821 57.0001 137.021 47.6001 132.941 43.9601C128.861 40.3201 122.221 42.7201 122.221 42.7201C122.221 42.7201 129.701 42.2401 131.221 45.6401C132.741 49.0401 131.541 58.6001 131.541 58.6001L134.821 57.0001Z" fill="white"/>
<path d="M131.54 58.8801C131.5 58.8801 131.42 58.8801 131.38 58.8401C131.3 58.7601 131.26 58.6801 131.26 58.5601C131.26 58.4801 132.46 49.0001 130.98 45.7201C129.54 42.5601 122.34 42.9601 122.26 42.9601C122.1 42.9601 121.98 42.8401 121.94 42.7201C121.94 42.6001 122.02 42.4801 122.14 42.4401C122.42 42.3601 128.98 40.0401 133.14 43.7601C137.3 47.4801 135.18 56.6801 135.1 57.0801C135.1 57.1601 135.02 57.2401 134.94 57.2801L131.66 58.8801C131.62 58.8801 131.58 58.8801 131.54 58.8801ZM124.5 42.4401C126.9 42.5601 130.46 43.2001 131.5 45.4801C132.86 48.4801 132.1 56.0401 131.9 58.0801L134.58 56.7601C134.82 55.6401 136.42 47.4001 132.78 44.1201C130.26 41.9201 126.74 42.0401 124.5 42.4401Z" fill="#231F20"/>
<path d="M137.451 60.3311C138.014 57.3798 136.658 54.6417 134.423 54.2153C132.188 53.7889 129.919 55.8357 129.356 58.7869C128.793 61.7382 130.149 64.4763 132.384 64.9027C134.619 65.3291 136.887 63.2823 137.451 60.3311Z" fill="white"/>
<path d="M132.98 65.28C132.78 65.28 132.54 65.28 132.34 65.24C129.98 64.8 128.5 61.88 129.1 58.8C129.34 57.36 130.06 56.08 131.1 55.08C131.98 54.2 133.26 53.8 134.5 54C136.86 54.44 138.34 57.36 137.74 60.44C137.18 63.24 135.14 65.28 132.98 65.28ZM133.86 54.44C132.98 54.48 132.14 54.84 131.5 55.44C130.54 56.36 129.9 57.56 129.7 58.84C129.18 61.64 130.42 64.24 132.5 64.64C134.58 65.04 136.7 63.08 137.22 60.28C137.74 57.48 136.5 54.88 134.42 54.48C134.22 54.44 134.02 54.44 133.86 54.44Z" fill="#231F20"/>
<path d="M125.501 68.1202C125.341 68.1202 125.221 68.0002 125.221 67.8402C125.221 67.6802 125.341 67.5602 125.501 67.5602C127.501 67.4402 130.861 67.0402 131.461 66.3202C132.141 65.5202 132.581 62.8802 132.701 61.9602C132.701 61.8002 132.861 61.6802 133.021 61.7202C133.181 61.7202 133.301 61.8802 133.261 62.0402C133.261 62.2002 132.821 65.6002 131.901 66.6802C130.981 67.7602 126.101 68.0802 125.501 68.1202Z" fill="#231F20"/>
<path d="M124.141 67.12L127.661 66.8C127.981 66.76 128.221 67 128.261 67.32L128.301 67.76C128.341 68.08 128.101 68.32 127.781 68.36L124.261 68.68C123.941 68.72 123.701 68.48 123.661 68.16L123.621 67.72C123.581 67.44 123.821 67.16 124.141 67.12Z" fill="white"/>
<path d="M124.421 68.9601C124.181 68.9601 123.941 68.8801 123.741 68.7201C123.541 68.5601 123.381 68.2801 123.381 68.0001C123.341 67.4001 123.741 66.9201 124.341 66.8401L127.421 66.5601C128.021 66.5201 128.501 66.9201 128.581 67.5201C128.621 67.8001 128.501 68.0801 128.341 68.2801C128.181 68.4801 127.901 68.6401 127.621 68.6401L124.541 68.9201L124.421 68.9601ZM127.461 67.1201H127.421L124.341 67.4001C124.061 67.4401 123.861 67.6801 123.901 67.9601C123.941 68.2401 124.181 68.4401 124.461 68.4001L127.541 68.1201C127.661 68.1201 127.781 68.0401 127.861 67.9601C127.941 67.8401 127.981 67.7201 127.981 67.6001C127.981 67.4801 127.901 67.3601 127.821 67.2401C127.701 67.1601 127.581 67.1201 127.461 67.1201Z" fill="#231F20"/>
<path d="M54.4205 45.4399C45.3805 45.4399 38.0605 50.8799 38.0605 57.5999C38.0605 61.5599 40.6205 65.0799 44.5405 67.2799L48.2205 72.4799V68.8399C50.2205 69.4399 52.3405 69.7599 54.4605 69.7599C63.5005 69.7599 70.8205 64.3199 70.8205 57.5999C70.8205 50.8799 63.4605 45.4399 54.4205 45.4399Z" fill="white"/>
<path d="M48.2203 72.7599C48.1403 72.7599 48.0603 72.7199 47.9803 72.6399L44.3403 67.5199C40.1803 65.1599 37.7803 61.5599 37.7803 57.5999C37.7803 50.7199 45.2603 45.1599 54.4203 45.1599C63.5803 45.1599 71.0603 50.7599 71.0603 57.5999C71.0603 64.4399 63.5803 70.0399 54.4203 70.0399C52.4203 70.0399 50.4203 69.7999 48.4603 69.2399V72.4799C48.4603 72.5999 48.3803 72.7199 48.2603 72.7599H48.2203ZM54.4203 45.7199C45.5403 45.7199 38.3403 51.0399 38.3403 57.5999C38.3403 61.3199 40.6603 64.7599 44.7003 67.0399C44.7403 67.0799 44.7803 67.0799 44.7803 67.1199L47.9403 71.5999V68.8399C47.9403 68.7599 47.9803 68.6799 48.0603 68.5999C48.1403 68.5599 48.2203 68.5199 48.3003 68.5599C50.3003 69.1599 52.3803 69.4799 54.4603 69.4399C63.3403 69.4399 70.5403 64.1199 70.5403 57.5599C70.5403 50.9999 63.3003 45.7199 54.4203 45.7199Z" fill="#53DFC8"/>
<path d="M46.5807 58.9599C47.3539 58.9599 47.9807 58.3331 47.9807 57.5599C47.9807 56.7867 47.3539 56.1599 46.5807 56.1599C45.8075 56.1599 45.1807 56.7867 45.1807 57.5599C45.1807 58.3331 45.8075 58.9599 46.5807 58.9599Z" fill="#53DFC8"/>
<path d="M54.4205 58.9599C55.1937 58.9599 55.8205 58.3331 55.8205 57.5599C55.8205 56.7867 55.1937 56.1599 54.4205 56.1599C53.6473 56.1599 53.0205 56.7867 53.0205 57.5599C53.0205 58.3331 53.6473 58.9599 54.4205 58.9599Z" fill="#53DFC8"/>
<path d="M62.3004 58.9599C63.0736 58.9599 63.7004 58.3331 63.7004 57.5599C63.7004 56.7867 63.0736 56.1599 62.3004 56.1599C61.5272 56.1599 60.9004 56.7867 60.9004 57.5599C60.9004 58.3331 61.5272 58.9599 62.3004 58.9599Z" fill="#53DFC8"/>
<path d="M129.42 132.56C134.501 132.56 138.62 131.324 138.62 129.8C138.62 128.276 134.501 127.04 129.42 127.04C124.339 127.04 120.22 128.276 120.22 129.8C120.22 131.324 124.339 132.56 129.42 132.56Z" fill="white"/>
<path d="M129.419 132.84C124.819 132.84 119.899 131.76 119.899 129.76C119.899 127.76 124.779 126.72 129.419 126.72C134.059 126.72 138.899 127.8 138.899 129.76C138.899 131.72 134.019 132.84 129.419 132.84ZM129.419 127.32C124.179 127.32 120.499 128.64 120.499 129.8C120.499 130.96 124.179 132.28 129.419 132.28C134.659 132.28 138.339 130.96 138.339 129.8C138.339 128.64 134.659 127.32 129.419 127.32Z" fill="#231F20"/>
<path d="M122.46 122.24L122.22 122.28C121.54 122.36 120.94 122.72 120.54 123.24C120.06 124 120.02 124.96 120.5 125.72C121.46 127.48 123.86 127.96 125.7 128.12C125.94 128.16 126.22 128.12 126.46 128.08C126.78 128 126.94 127.68 126.86 127.4C126.82 127.24 126.7 127.08 126.54 127C126.34 126.92 126.14 126.84 125.94 126.84C124.78 126.64 123.58 126.52 122.54 126C121.94 125.68 121.1 125 121.54 124.24C121.7 124 121.94 123.8 122.18 123.68C123.22 123.2 124.22 123.56 125.26 123.88C125.34 123.92 125.42 123.92 125.5 123.92C125.7 123.88 125.86 123.68 125.82 123.44C125.78 123 125.34 122.68 124.9 122.52C124.1 122.2 123.26 122.12 122.46 122.24Z" fill="white"/>
<path d="M125.98 128.48C125.86 128.48 125.74 128.48 125.66 128.48C122.82 128.2 121.06 127.36 120.26 125.92C119.74 125.04 119.78 123.96 120.34 123.12C120.82 122.56 121.5 122.16 122.22 122.04L122.46 122C123.3 121.88 124.18 121.96 125.02 122.28C125.7 122.52 126.06 122.96 126.1 123.44C126.14 123.8 125.9 124.12 125.54 124.2C125.42 124.2 125.3 124.2 125.18 124.16L124.9 124.08C124.02 123.8 123.14 123.56 122.3 123.96C122.1 124.04 121.9 124.2 121.78 124.4C121.7 124.52 121.66 124.68 121.7 124.84C121.9 125.24 122.22 125.6 122.66 125.76C123.58 126.16 124.54 126.4 125.54 126.52L125.94 126.6C126.18 126.64 126.42 126.68 126.66 126.8C126.94 126.96 127.14 127.2 127.18 127.52C127.18 127.92 126.94 128.28 126.58 128.4C126.38 128.44 126.18 128.48 125.98 128.48ZM122.5 122.52L122.3 122.56C121.7 122.64 121.18 122.96 120.78 123.4C120.34 124.08 120.34 124.92 120.74 125.6C121.46 126.88 123.06 127.64 125.7 127.88C125.9 127.92 126.14 127.92 126.34 127.84C126.46 127.8 126.58 127.68 126.58 127.52C126.54 127.4 126.46 127.32 126.38 127.28C126.22 127.2 126.02 127.16 125.86 127.12L125.46 127.04C124.42 126.92 123.38 126.68 122.42 126.24C122.18 126.12 121.38 125.68 121.18 124.96C121.1 124.64 121.14 124.32 121.3 124.08C121.5 123.8 121.74 123.56 122.06 123.44C123.1 122.92 124.1 123.24 125.06 123.52L125.34 123.6C125.38 123.6 125.42 123.64 125.46 123.64C125.5 123.6 125.5 123.56 125.5 123.48C125.46 123.12 124.98 122.88 124.78 122.8C124.02 122.52 123.26 122.44 122.5 122.52Z" fill="#231F20"/>
<path d="M123.3 120.36C123.3 120.36 125.02 128.96 125.18 129.48C125.34 130 129.9 131.32 132.62 130.04L135.46 121.24L123.3 120.36Z" fill="white"/>
<path d="M129.78 130.88C128.34 130.88 126.9 130.6 125.54 130.08C125.18 129.92 124.98 129.76 124.94 129.56C124.78 129.04 123.14 120.76 123.06 120.4C123.06 120.32 123.06 120.2 123.14 120.16C123.18 120.08 123.3 120.04 123.38 120.08L135.54 120.96C135.62 120.96 135.7 121 135.74 121.08C135.78 121.16 135.82 121.24 135.78 121.32L132.94 130.12C132.9 130.2 132.86 130.28 132.78 130.28C131.82 130.72 130.78 130.92 129.78 130.88ZM123.7 120.68C124.3 123.72 125.38 129.04 125.5 129.4C125.78 129.76 129.82 130.96 132.46 129.84L135.14 121.52L123.7 120.68Z" fill="#231F20"/>
<path d="M135.486 120.858C135.546 119.401 132.874 118.109 129.519 117.971C126.164 117.833 123.396 118.903 123.336 120.359C123.276 121.816 125.947 123.109 129.303 123.247C132.658 123.384 135.426 122.315 135.486 120.858Z" fill="#231F20"/>
<path d="M129.9 123.56H129.3C127.78 123.52 126.3 123.2 124.9 122.56C123.66 121.96 122.98 121.2 123.02 120.36C123.06 119.52 123.78 118.8 125.06 118.32C127.94 117.36 131.1 117.52 133.9 118.68C135.14 119.28 135.82 120.04 135.78 120.88C135.74 122.4 133.18 123.56 129.9 123.56ZM128.94 118.24C127.7 118.2 126.46 118.4 125.3 118.84C124.26 119.24 123.66 119.8 123.62 120.4C123.58 121 124.18 121.6 125.18 122.08C126.5 122.64 127.9 122.96 129.34 123C132.82 123.16 135.22 122 135.26 120.88C135.3 120.32 134.7 119.68 133.7 119.2C132.38 118.64 130.98 118.32 129.54 118.28L128.94 118.24Z" fill="#231F20"/>
</svg>
