<svg width="200" height="200" viewBox="0 0 200 200" fill="none" xmlns="http://www.w3.org/2000/svg">
<path d="M177.868 157.624H23.4358C23.3615 157.624 23.2903 157.594 23.2378 157.542C23.1853 157.489 23.1558 157.418 23.1558 157.344C23.1558 157.27 23.1853 157.198 23.2378 157.146C23.2903 157.093 23.3615 157.064 23.4358 157.064H177.868C177.942 157.064 178.013 157.093 178.066 157.146C178.118 157.198 178.148 157.27 178.148 157.344C178.148 157.418 178.118 157.489 178.066 157.542C178.013 157.594 177.942 157.624 177.868 157.624Z" fill="#D1D3D4"/>
<path d="M145.972 165.86H79.524C78.9468 165.866 78.3745 165.753 77.8431 165.528C77.3117 165.303 76.8325 164.97 76.4356 164.551C76.0386 164.132 75.7325 163.635 75.5364 163.092C75.3403 162.55 75.2585 161.972 75.296 161.396L81.964 34.64C82.0396 33.4402 82.566 32.3134 83.4377 31.4854C84.3094 30.6575 85.4618 30.1898 86.664 30.176H153.112C153.689 30.1698 154.261 30.2829 154.793 30.5082C155.324 30.7335 155.803 31.0661 156.2 31.4851C156.597 31.9042 156.903 32.4007 157.099 32.9436C157.296 33.4865 157.377 34.064 157.34 34.64L150.672 161.396C150.596 162.596 150.07 163.723 149.198 164.551C148.327 165.379 147.174 165.846 145.972 165.86Z" fill="#294A75"/>
<path d="M145.972 166.104H79.524C78.913 166.111 78.3072 165.991 77.7446 165.753C77.182 165.515 76.6747 165.163 76.2545 164.719C75.8342 164.276 75.5102 163.75 75.3025 163.176C75.0949 162.601 75.0082 161.99 75.048 161.38L81.72 34.628C81.7986 33.3653 82.352 32.1789 83.269 31.3072C84.186 30.4354 85.3988 29.9428 86.664 29.928H153.112C153.724 29.9208 154.33 30.0398 154.894 30.2778C155.457 30.5157 155.965 30.8674 156.387 31.3109C156.808 31.7543 157.133 32.2799 157.342 32.8549C157.551 33.4298 157.639 34.0416 157.6 34.652L150.916 161.408C150.837 162.67 150.284 163.856 149.367 164.727C148.45 165.599 147.237 166.09 145.972 166.104ZM86.664 30.424C85.5256 30.4379 84.4344 30.8811 83.6089 31.6651C82.7834 32.4491 82.2845 33.5159 82.212 34.652L75.54 161.408C75.5039 161.952 75.5811 162.498 75.7667 163.011C75.9523 163.523 76.2421 163.992 76.618 164.387C76.9939 164.782 77.4477 165.095 77.9506 165.306C78.4535 165.517 78.9947 165.621 79.54 165.612H145.972C147.111 165.598 148.203 165.154 149.028 164.37C149.854 163.585 150.352 162.517 150.424 161.38L157.096 34.628C157.132 34.0839 157.055 33.5382 156.869 33.0254C156.684 32.5127 156.394 32.0439 156.018 31.6489C155.642 31.2538 155.188 30.941 154.685 30.7302C154.182 30.5194 153.641 30.4151 153.096 30.424H86.664Z" fill="#294A75"/>
<path d="M141.06 165.636H74.612C74.0361 165.64 73.4656 165.525 72.9361 165.299C72.4066 165.073 71.9293 164.74 71.5341 164.321C71.1389 163.902 70.8343 163.406 70.6391 162.865C70.444 162.323 70.3626 161.747 70.4 161.172L77.052 34.4C77.1276 33.2002 77.654 32.0734 78.5257 31.2455C79.3974 30.4175 80.5498 29.9498 81.752 29.936H148.2C148.777 29.9299 149.349 30.0429 149.881 30.2682C150.412 30.4935 150.891 30.8261 151.288 31.2451C151.685 31.6642 151.991 32.1608 152.187 32.7036C152.384 33.2465 152.465 33.824 152.428 34.4L145.76 161.172C145.684 162.372 145.158 163.499 144.286 164.327C143.415 165.155 142.262 165.622 141.06 165.636Z" fill="white"/>
<path d="M141.06 165.916H74.6118C73.9966 165.922 73.3869 165.801 72.8207 165.56C72.2544 165.319 71.7439 164.965 71.3209 164.518C70.8978 164.071 70.5714 163.542 70.362 162.964C70.1526 162.385 70.0647 161.77 70.1038 161.156L76.7758 34.4001C76.8554 33.1295 77.4126 31.9361 78.3355 31.0592C79.2584 30.1823 80.4788 29.6868 81.7518 29.6721H148.2C148.815 29.6659 149.425 29.7867 149.992 30.027C150.558 30.2674 151.069 30.622 151.492 31.0688C151.915 31.5156 152.242 32.0449 152.451 32.6236C152.66 33.2024 152.747 33.818 152.708 34.4321L146.04 161.2C145.954 162.468 145.395 163.658 144.472 164.532C143.549 165.406 142.331 165.9 141.06 165.916ZM81.7518 30.2321C80.6247 30.251 79.5461 30.6936 78.7307 31.4719C77.9153 32.2503 77.423 33.3071 77.3518 34.4321L70.6638 161.2C70.6285 161.738 70.7047 162.278 70.8877 162.785C71.0706 163.292 71.3564 163.756 71.727 164.148C72.0977 164.54 72.5452 164.85 73.0416 165.061C73.538 165.272 74.0725 165.378 74.6118 165.372H141.06C142.19 165.358 143.274 164.918 144.093 164.139C144.913 163.36 145.408 162.3 145.48 161.172L152.148 34.4001C152.184 33.8619 152.109 33.322 151.926 32.8145C151.744 32.3069 151.458 31.8426 151.087 31.451C150.716 31.0594 150.268 30.7489 149.771 30.5391C149.274 30.3293 148.739 30.2248 148.2 30.2321H81.7518Z" fill="#294A75"/>
<path d="M136.8 157.624H79.6477C79.1514 157.63 78.6592 157.533 78.202 157.34C77.7448 157.147 77.3326 156.861 76.9911 156.501C76.6497 156.141 76.3864 155.714 76.2178 155.247C76.0493 154.78 75.9791 154.283 76.0117 153.788L81.8837 42.22C81.948 41.1977 82.3957 40.2373 83.1372 39.5307C83.8787 38.824 84.8595 38.4231 85.8837 38.408H143.028C143.524 38.4019 144.017 38.4987 144.474 38.6922C144.932 38.8857 145.344 39.1718 145.686 39.5325C146.027 39.8932 146.29 40.3206 146.459 40.788C146.627 41.2553 146.697 41.7524 146.664 42.248L140.8 153.816C140.734 154.838 140.286 155.797 139.545 156.503C138.803 157.209 137.823 157.609 136.8 157.624ZM85.8917 38.968C85.0089 38.9793 84.1629 39.3234 83.5229 39.9315C82.8829 40.5396 82.496 41.3669 82.4397 42.248L76.5717 153.816C76.5441 154.235 76.6034 154.655 76.746 155.051C76.8885 155.446 77.1112 155.807 77.4 156.112C77.6889 156.417 78.0376 156.659 78.4244 156.823C78.8112 156.987 79.2276 157.069 79.6477 157.064H136.8C137.682 157.054 138.528 156.71 139.168 156.103C139.808 155.495 140.195 154.669 140.252 153.788L146.124 42.22C146.151 41.8005 146.091 41.3799 145.948 40.9845C145.805 40.5892 145.582 40.2276 145.293 39.9224C145.004 39.6172 144.655 39.3749 144.268 39.2106C143.881 39.0464 143.464 38.9638 143.044 38.968H85.8917Z" fill="#D1D3D4"/>
<path d="M116.204 34.9921H103.72C103.646 34.9921 103.574 34.9626 103.522 34.9101C103.469 34.8576 103.44 34.7864 103.44 34.7121C103.44 34.6379 103.469 34.5666 103.522 34.5141C103.574 34.4616 103.646 34.4321 103.72 34.4321H116.204C116.278 34.4321 116.349 34.4616 116.402 34.5141C116.454 34.5666 116.484 34.6379 116.484 34.7121C116.484 34.7864 116.454 34.8576 116.402 34.9101C116.349 34.9626 116.278 34.9921 116.204 34.9921Z" fill="#D1D3D4"/>
<path d="M120.24 34.9921H118.056C117.982 34.9921 117.91 34.9626 117.858 34.9101C117.805 34.8576 117.776 34.7864 117.776 34.7121C117.776 34.6379 117.805 34.5666 117.858 34.5141C117.91 34.4616 117.982 34.4321 118.056 34.4321H120.24C120.314 34.4321 120.385 34.4616 120.438 34.5141C120.49 34.5666 120.52 34.6379 120.52 34.7121C120.52 34.7864 120.49 34.8576 120.438 34.9101C120.385 34.9626 120.314 34.9921 120.24 34.9921Z" fill="#D1D3D4"/>
<path d="M153.764 60.4001C153.727 60.3986 153.691 60.3898 153.658 60.3742C153.625 60.3586 153.595 60.3366 153.571 60.3094C153.546 60.2822 153.527 60.2504 153.515 60.2159C153.503 60.1813 153.498 60.1447 153.5 60.1081L154.188 47.0041C154.189 46.9669 154.197 46.9304 154.213 46.8966C154.229 46.8629 154.251 46.8328 154.279 46.808C154.307 46.7833 154.339 46.7645 154.374 46.7528C154.41 46.7411 154.447 46.7368 154.484 46.7401C154.558 46.7442 154.627 46.7772 154.676 46.8319C154.725 46.8865 154.751 46.9585 154.748 47.0321L154.06 60.1361C154.058 60.1729 154.049 60.2089 154.033 60.2421C154.017 60.2753 153.994 60.305 153.967 60.3295C153.939 60.3541 153.907 60.3729 153.872 60.385C153.838 60.3971 153.801 60.4022 153.764 60.4001Z" fill="#D1D3D4"/>
<path d="M134.316 77.3242H86.3598C85.9011 77.3292 85.4463 77.2391 85.0241 77.0597C84.6019 76.8803 84.2214 76.6155 83.9065 76.2818C83.5916 75.9482 83.3493 75.553 83.1946 75.1211C83.0399 74.6892 82.9763 74.2299 83.0078 73.7722L83.5918 63.5522C83.6562 62.5962 84.0786 61.6996 84.7748 61.0412C85.4709 60.3829 86.3897 60.0112 87.3478 60.0002H135.3C135.759 59.9947 136.214 60.0844 136.636 60.2635C137.059 60.4427 137.44 60.7076 137.755 61.0414C138.07 61.3751 138.312 61.7706 138.466 62.2028C138.621 62.6349 138.684 63.0944 138.652 63.5522L138.072 73.7722C138.007 74.7283 137.585 75.6249 136.889 76.2832C136.193 76.9416 135.274 77.3133 134.316 77.3242Z" fill="white"/>
<path d="M134.324 77.8802H86.3681C85.8711 77.8858 85.3782 77.7884 84.9207 77.5942C84.4631 77.3999 84.0507 77.113 83.7095 76.7515C83.3683 76.39 83.1057 75.9618 82.9382 75.4938C82.7706 75.0258 82.7018 74.5281 82.7361 74.0322L83.3161 63.8162C83.3873 62.7898 83.8418 61.8276 84.5895 61.1207C85.3371 60.4138 86.3233 60.0138 87.3521 60.0002H135.308C135.805 59.9946 136.298 60.092 136.756 60.2863C137.213 60.4805 137.625 60.7675 137.967 61.129C138.308 61.4904 138.571 61.9187 138.738 62.3867C138.906 62.8547 138.974 63.3523 138.94 63.8482L138.36 74.0682C138.288 75.094 137.833 76.0552 137.085 76.7613C136.338 77.4673 135.352 77.8667 134.324 77.8802ZM87.3521 60.5562C86.4658 60.5682 85.6165 60.9129 84.9725 61.522C84.3286 62.1311 83.9373 62.96 83.8761 63.8442L83.2961 74.0642C83.2668 74.4838 83.3247 74.9049 83.4663 75.301C83.6079 75.697 83.83 76.0595 84.1186 76.3654C84.4073 76.6713 84.7562 76.9141 85.1433 77.0785C85.5305 77.2428 85.9475 77.3251 86.3681 77.3202H134.324C135.211 77.3092 136.061 76.9648 136.705 76.3555C137.349 75.7463 137.74 74.9168 137.8 74.0322L138.4 63.8162C138.428 63.3956 138.37 62.9737 138.228 62.5766C138.086 62.1796 137.864 61.8159 137.576 61.5082C137.287 61.203 136.939 60.9608 136.552 60.797C136.165 60.6332 135.748 60.5512 135.328 60.5562H87.3521Z" fill="#294A75"/>
<path d="M94.9917 73.6177V64.2844H99.5517C100.725 64.2844 101.605 64.5066 102.192 64.951C102.787 65.3955 103.085 65.9821 103.085 66.711C103.085 67.1999 102.965 67.6266 102.725 67.991C102.485 68.3466 102.156 68.6221 101.738 68.8177C101.321 69.0133 100.841 69.111 100.298 69.111L100.552 68.5644C101.138 68.5644 101.658 68.6621 102.112 68.8577C102.565 69.0444 102.916 69.3244 103.165 69.6977C103.423 70.071 103.552 70.5288 103.552 71.071C103.552 71.871 103.236 72.4977 102.605 72.951C101.974 73.3955 101.045 73.6177 99.8184 73.6177H94.9917ZM97.1384 71.991H99.6584C100.218 71.991 100.641 71.9021 100.925 71.7244C101.218 71.5377 101.365 71.2444 101.365 70.8444C101.365 70.4533 101.218 70.1644 100.925 69.9777C100.641 69.7821 100.218 69.6844 99.6584 69.6844H96.9784V68.111H99.285C99.8095 68.111 100.209 68.0221 100.485 67.8444C100.769 67.6577 100.912 67.3777 100.912 67.0044C100.912 66.6399 100.769 66.3688 100.485 66.191C100.209 66.0044 99.8095 65.911 99.285 65.911H97.1384V71.991Z" fill="#294A75"/>
<path d="M108.37 73.7244C107.606 73.7244 106.926 73.5644 106.33 73.2444C105.744 72.9244 105.277 72.4888 104.93 71.9377C104.593 71.3777 104.424 70.7421 104.424 70.031C104.424 69.311 104.593 68.6755 104.93 68.1244C105.277 67.5644 105.744 67.1288 106.33 66.8177C106.926 66.4977 107.606 66.3377 108.37 66.3377C109.126 66.3377 109.801 66.4977 110.397 66.8177C110.993 67.1288 111.459 67.5599 111.797 68.111C112.135 68.6621 112.304 69.3021 112.304 70.031C112.304 70.7421 112.135 71.3777 111.797 71.9377C111.459 72.4888 110.993 72.9244 110.397 73.2444C109.801 73.5644 109.126 73.7244 108.37 73.7244ZM108.37 72.0177C108.717 72.0177 109.028 71.9377 109.304 71.7777C109.579 71.6177 109.797 71.391 109.957 71.0977C110.117 70.7955 110.197 70.4399 110.197 70.031C110.197 69.6133 110.117 69.2577 109.957 68.9644C109.797 68.671 109.579 68.4444 109.304 68.2844C109.028 68.1244 108.717 68.0444 108.37 68.0444C108.024 68.0444 107.713 68.1244 107.437 68.2844C107.161 68.4444 106.939 68.671 106.77 68.9644C106.61 69.2577 106.53 69.6133 106.53 70.031C106.53 70.4399 106.61 70.7955 106.77 71.0977C106.939 71.391 107.161 71.6177 107.437 71.7777C107.713 71.9377 108.024 72.0177 108.37 72.0177Z" fill="#294A75"/>
<path d="M117.024 73.7244C116.26 73.7244 115.58 73.5644 114.984 73.2444C114.397 72.9244 113.931 72.4888 113.584 71.9377C113.246 71.3777 113.077 70.7421 113.077 70.031C113.077 69.311 113.246 68.6755 113.584 68.1244C113.931 67.5644 114.397 67.1288 114.984 66.8177C115.58 66.4977 116.26 66.3377 117.024 66.3377C117.78 66.3377 118.455 66.4977 119.051 66.8177C119.646 67.1288 120.113 67.5599 120.451 68.111C120.788 68.6621 120.957 69.3021 120.957 70.031C120.957 70.7421 120.788 71.3777 120.451 71.9377C120.113 72.4888 119.646 72.9244 119.051 73.2444C118.455 73.5644 117.78 73.7244 117.024 73.7244ZM117.024 72.0177C117.371 72.0177 117.682 71.9377 117.957 71.7777C118.233 71.6177 118.451 71.391 118.611 71.0977C118.771 70.7955 118.851 70.4399 118.851 70.031C118.851 69.6133 118.771 69.2577 118.611 68.9644C118.451 68.671 118.233 68.4444 117.957 68.2844C117.682 68.1244 117.371 68.0444 117.024 68.0444C116.677 68.0444 116.366 68.1244 116.091 68.2844C115.815 68.4444 115.593 68.671 115.424 68.9644C115.264 69.2577 115.184 69.6133 115.184 70.031C115.184 70.4399 115.264 70.7955 115.424 71.0977C115.593 71.391 115.815 71.6177 116.091 71.7777C116.366 71.9377 116.677 72.0177 117.024 72.0177Z" fill="#294A75"/>
<path d="M123.984 72.151L124.038 69.6177L127.384 66.4444H129.864L126.651 69.711L125.571 70.591L123.984 72.151ZM122.264 73.6177V63.7244H124.344V73.6177H122.264ZM127.611 73.6177L125.184 70.6044L126.491 68.991L130.131 73.6177H127.611Z" fill="#294A75"/>
<path d="M132.076 117.708H87.7278C87.6535 117.708 87.5823 117.679 87.5298 117.626C87.4773 117.574 87.4478 117.502 87.4478 117.428C87.4478 117.354 87.4773 117.283 87.5298 117.23C87.5823 117.178 87.6535 117.148 87.7278 117.148H132.076C132.15 117.148 132.221 117.178 132.274 117.23C132.326 117.283 132.356 117.354 132.356 117.428C132.356 117.502 132.326 117.574 132.274 117.626C132.221 117.679 132.15 117.708 132.076 117.708Z" fill="#D1D3D4"/>
<path d="M132.076 108.708H87.7278C87.6535 108.708 87.5823 108.678 87.5298 108.626C87.4773 108.573 87.4478 108.502 87.4478 108.428C87.4478 108.354 87.4773 108.282 87.5298 108.23C87.5823 108.177 87.6535 108.148 87.7278 108.148H132.076C132.15 108.148 132.221 108.177 132.274 108.23C132.326 108.282 132.356 108.354 132.356 108.428C132.356 108.502 132.326 108.573 132.274 108.626C132.221 108.678 132.15 108.708 132.076 108.708Z" fill="#D1D3D4"/>
<path d="M132.076 99.7079H87.7278C87.6535 99.7079 87.5823 99.6785 87.5298 99.6259C87.4773 99.5734 87.4478 99.5022 87.4478 99.428C87.4478 99.3537 87.4773 99.2825 87.5298 99.23C87.5823 99.1774 87.6535 99.1479 87.7278 99.1479H132.076C132.15 99.1479 132.221 99.1774 132.274 99.23C132.326 99.2825 132.356 99.3537 132.356 99.428C132.356 99.5022 132.326 99.5734 132.274 99.6259C132.221 99.6785 132.15 99.7079 132.076 99.7079Z" fill="#D1D3D4"/>
<path d="M132.076 90.7079H87.7278C87.6535 90.7079 87.5823 90.6785 87.5298 90.6259C87.4773 90.5734 87.4478 90.5022 87.4478 90.428C87.4478 90.3537 87.4773 90.2825 87.5298 90.23C87.5823 90.1774 87.6535 90.1479 87.7278 90.1479H132.076C132.15 90.1479 132.221 90.1774 132.274 90.23C132.326 90.2825 132.356 90.3537 132.356 90.428C132.356 90.5022 132.326 90.5734 132.274 90.6259C132.221 90.6785 132.15 90.7079 132.076 90.7079Z" fill="#D1D3D4"/>
<path d="M131.532 127.272H87.1999C87.1257 127.272 87.0544 127.243 87.0019 127.19C86.9494 127.138 86.9199 127.066 86.9199 126.992C86.9199 126.918 86.9494 126.847 87.0019 126.794C87.0544 126.742 87.1257 126.712 87.1999 126.712H131.532C131.569 126.712 131.605 126.719 131.639 126.733C131.673 126.748 131.704 126.768 131.73 126.794C131.756 126.82 131.777 126.851 131.791 126.885C131.805 126.919 131.812 126.955 131.812 126.992C131.812 127.029 131.805 127.065 131.791 127.099C131.777 127.133 131.756 127.164 131.73 127.19C131.704 127.216 131.673 127.237 131.639 127.251C131.605 127.265 131.569 127.272 131.532 127.272Z" fill="#D1D3D4"/>
<path d="M130.992 136.836H86.6399C86.5656 136.836 86.4944 136.807 86.4419 136.754C86.3894 136.702 86.3599 136.63 86.3599 136.556C86.3599 136.482 86.3894 136.411 86.4419 136.358C86.4944 136.306 86.5656 136.276 86.6399 136.276H130.992C131.066 136.276 131.137 136.306 131.19 136.358C131.242 136.411 131.272 136.482 131.272 136.556C131.272 136.63 131.242 136.702 131.19 136.754C131.137 136.807 131.066 136.836 130.992 136.836Z" fill="#D1D3D4"/>
<path d="M123.876 146.4H92.676C92.6017 146.4 92.5305 146.371 92.478 146.318C92.4255 146.266 92.396 146.194 92.396 146.12C92.396 146.046 92.4255 145.975 92.478 145.922C92.5305 145.87 92.6017 145.84 92.676 145.84H123.876C123.95 145.84 124.021 145.87 124.074 145.922C124.126 145.975 124.156 146.046 124.156 146.12C124.156 146.194 124.126 146.266 124.074 146.318C124.021 146.371 123.95 146.4 123.876 146.4Z" fill="#D1D3D4"/>
<path d="M165.556 139.932C165.612 139.119 165.439 138.307 165.056 137.588C164.744 137.068 164.256 136.652 164.004 136.104C163.56 135.152 163.872 134.028 163.768 132.984C163.676 132.107 163.29 131.286 162.672 130.656C162.124 130.104 161.42 129.724 160.896 129.148C160.04 128.2 159.792 126.872 159.296 125.688C158.603 124.02 157.404 122.611 155.868 121.66C156.804 123.54 154.668 125.928 155.64 127.792C155.944 128.384 156.528 128.816 156.752 129.44C157.292 130.952 155.492 132.592 156.068 134.092C156.356 134.84 157.16 135.272 157.532 135.984C158.036 136.94 157.64 138.104 157.68 139.184C157.736 140.676 158.644 142.008 159.72 143.04C160.396 143.684 161.14 144.24 161.868 144.824C162.736 145.52 163.1 146.248 163.868 145.132C164.921 143.598 165.508 141.792 165.556 139.932Z" fill="#3BDBC0"/>
<path d="M166.524 140.8C166.248 139.648 166.048 138.4 166.524 137.304C167.056 136.072 168.384 135.204 168.524 133.872C168.624 132.996 168.18 132.112 168.356 131.252C168.532 130.392 169.232 129.8 169.816 129.168C171.152 127.698 171.945 125.815 172.064 123.832C172.904 124.94 173.756 126.072 174.212 127.38C174.668 128.688 174.676 130.236 173.9 131.38C173.676 131.648 173.493 131.947 173.356 132.268C173.092 133.12 173.82 133.912 174.196 134.716C174.42 135.176 174.514 135.689 174.468 136.199C174.421 136.709 174.236 137.196 173.932 137.608C173.168 138.56 171.7 138.932 171.324 140.088C171.229 140.52 171.185 140.962 171.192 141.404C171.112 142.17 170.805 142.895 170.311 143.485C169.816 144.075 169.156 144.504 168.416 144.716C167.516 144.932 167.532 144.576 167.372 143.816C167.16 142.8 166.772 141.804 166.524 140.8Z" fill="#3BDBC0"/>
<path d="M163.652 132.488C163.012 130.272 162.756 127.956 162.08 125.748C161.51 124.025 160.815 122.346 160 120.724L162.748 121.884C163.632 122.256 164.584 122.684 165 123.556C165.724 125.056 164.424 126.976 165.184 128.46C165.452 128.98 165.936 129.352 166.276 129.828C167.076 130.964 166.96 132.528 166.516 133.852C166.324 134.42 165.492 137.36 164.748 136.544C164.448 136.216 164.424 134.996 164.296 134.544C164.088 133.86 163.852 133.2 163.652 132.488Z" fill="#3BDBC0"/>
<path d="M165.116 161.948C164.568 158.324 162.848 145.548 162.832 145.424L163.388 145.348C163.388 145.476 165.12 158.244 165.668 161.864L165.116 161.948Z" fill="#3BDBC0"/>
<path d="M165.844 165.364H165.284C165.316 161.06 167.116 144.596 168.156 143.46L168.556 143.836C167.78 144.692 165.88 160.584 165.844 165.364Z" fill="#3BDBC0"/>
<path d="M166.776 164.544L166.216 164.52C166.616 155.248 164.66 135.768 164.64 135.572L165.196 135.516C165.2 135.712 167.2 155.232 166.776 164.544Z" fill="#3BDBC0"/>
<path d="M160.444 151.556H170.68L169.964 163.2C169.84 165.2 168.364 166.772 166.552 166.772H164.572C162.776 166.772 161.284 165.208 161.16 163.2L160.444 151.556Z" fill="white"/>
<path d="M166.552 167.044H164.572C162.632 167.044 161.004 165.356 160.872 163.2L160.156 151.576C160.153 151.536 160.159 151.497 160.173 151.46C160.187 151.422 160.208 151.389 160.236 151.36C160.262 151.331 160.294 151.307 160.33 151.291C160.366 151.275 160.405 151.268 160.444 151.268H170.68C170.72 151.268 170.759 151.276 170.795 151.292C170.832 151.307 170.865 151.33 170.892 151.359C170.92 151.388 170.941 151.422 170.954 151.459C170.968 151.497 170.974 151.536 170.972 151.576L170.252 163.2C170.12 165.356 168.496 167.044 166.552 167.044ZM160.752 151.844L161.452 163.164C161.564 165.016 162.936 166.464 164.572 166.464H166.552C168.192 166.464 169.564 165.016 169.676 163.164L170.376 151.844H160.752Z" fill="#3BDBC0"/>
<path d="M33.2679 119.492L30.1239 124.084C30.1239 124.084 29.9239 126.532 29.2719 126.58C28.6199 126.628 28.8719 124.536 28.8719 124.536C28.8719 124.536 22.2799 127.88 22.1319 126.28C21.9839 124.68 26.6239 122.04 26.6719 121.88C26.7199 121.72 29.3679 117.936 29.3679 117.936L33.2679 119.492Z" fill="white"/>
<path d="M22.8361 126.984C22.6223 126.995 22.4091 126.953 22.2161 126.86C22.1142 126.806 22.0278 126.727 21.9648 126.631C21.9018 126.534 21.8644 126.423 21.8561 126.308C21.7401 125.044 23.8561 123.44 25.9801 122.04C26.1801 121.908 26.3801 121.768 26.4561 121.716C26.5761 121.512 27.0641 120.764 29.1441 117.784C29.1802 117.732 29.2326 117.695 29.2928 117.676C29.353 117.658 29.4176 117.661 29.4761 117.684L33.3721 119.232C33.4108 119.248 33.4455 119.273 33.4738 119.304C33.5021 119.335 33.5233 119.372 33.5361 119.412C33.5474 119.453 33.5496 119.495 33.5427 119.536C33.5358 119.578 33.5199 119.617 33.4961 119.652L30.4001 124.184C30.3241 125.024 30.0761 126.8 29.3001 126.86C29.2186 126.866 29.1367 126.854 29.0605 126.824C28.9843 126.794 28.9158 126.748 28.8601 126.688C28.5481 126.364 28.5281 125.572 28.5561 125.008C27.2841 125.628 24.3401 126.984 22.8361 126.984ZM29.4761 118.288C28.4921 119.696 27.0321 121.812 26.9321 122.004C26.9041 122.1 26.8561 122.128 26.2921 122.508C25.3081 123.16 22.2921 125.156 22.4161 126.256C22.4155 126.28 22.4219 126.304 22.4347 126.325C22.4475 126.345 22.4661 126.362 22.4881 126.372C23.1961 126.772 26.5761 125.384 28.7481 124.284C28.7933 124.26 28.8441 124.25 28.8949 124.253C28.9458 124.257 28.9946 124.274 29.0361 124.304C29.0773 124.334 29.1097 124.374 29.1301 124.42C29.1505 124.467 29.1581 124.518 29.1521 124.568C29.0601 125.368 29.1121 126.2 29.2641 126.308C29.4681 126.232 29.7561 125.144 29.8441 124.06C29.8479 124.012 29.8645 123.967 29.8921 123.928L32.8401 119.624L29.4761 118.288Z" fill="#231F20"/>
<path d="M42.9963 91.9521C42.0963 92.2521 27.9243 118.592 27.9243 118.592L32.8163 120.992C32.8163 120.992 48.1683 106.388 48.7643 101.748C49.3603 97.1081 42.9963 91.9521 42.9963 91.9521Z" fill="#294A75"/>
<path d="M50.9199 134.42C51.0599 134.84 53.1639 137.648 52.8839 138.908C52.6039 140.168 51.9119 165.728 51.9119 165.728L55.9679 167.132C55.9679 167.132 61.0159 141.712 61.5679 138.068C61.898 135.742 61.898 133.382 61.5679 131.056L50.9199 134.42Z" fill="white"/>
<path d="M55.9682 167.412C55.9378 167.418 55.9066 167.418 55.8762 167.412L51.8242 166C51.768 165.98 51.7193 165.943 51.6849 165.895C51.6505 165.846 51.6321 165.788 51.6322 165.728C51.6642 164.68 52.3282 140.128 52.6082 138.852C52.7962 138.02 51.6442 136.172 51.0922 135.284C50.9244 135.039 50.7772 134.781 50.6522 134.512C50.6309 134.44 50.638 134.363 50.6722 134.296C50.6886 134.263 50.7116 134.234 50.7399 134.211C50.7681 134.187 50.8009 134.17 50.8362 134.16L61.4922 130.8C61.5307 130.789 61.5712 130.785 61.6111 130.79C61.651 130.795 61.6894 130.808 61.7242 130.828C61.7576 130.85 61.7862 130.878 61.8083 130.911C61.8303 130.944 61.8452 130.981 61.8522 131.02C62.1867 133.376 62.1867 135.768 61.8522 138.124C61.3002 141.724 56.2922 166.944 56.2522 167.2C56.244 167.239 56.2277 167.276 56.2043 167.309C56.1808 167.341 56.1508 167.368 56.1162 167.388C56.0698 167.409 56.0188 167.417 55.9682 167.412ZM52.2002 165.532L55.7562 166.764C56.3362 163.824 60.7802 141.404 61.3002 138.024C61.6073 135.836 61.6221 133.616 61.3442 131.424L51.3242 134.588C51.3962 134.708 51.4842 134.852 51.5682 134.988C52.2522 136.084 53.3922 137.92 53.1682 138.988C52.9402 139.94 52.4402 156.648 52.2002 165.532Z" fill="#231F20"/>
<path d="M41.3281 133.368C41.3281 133.368 41.3841 136.244 41.1041 137.088C40.8241 137.932 32.0361 162.18 32.0361 162.18L35.2121 163.78C35.2121 163.78 50.0721 140.5 50.4521 138.58C50.8321 136.66 50.4521 133.816 50.4521 133.816L41.3281 133.368Z" fill="white"/>
<path d="M35.2001 164.048C35.1569 164.047 35.1145 164.036 35.0761 164.016L31.8761 162.416C31.8155 162.385 31.7683 162.333 31.7432 162.27C31.7182 162.207 31.7171 162.136 31.7401 162.072C31.8281 161.828 40.5401 137.816 40.8041 136.984C41.0241 136.332 41.0321 134.148 41.0161 133.364C41.015 133.326 41.0218 133.287 41.0361 133.252C41.0505 133.216 41.072 133.184 41.0994 133.157C41.1268 133.13 41.1595 133.108 41.1954 133.095C41.2313 133.081 41.2697 133.075 41.3081 133.076L50.4321 133.528C50.4974 133.53 50.5598 133.556 50.6081 133.6C50.6565 133.644 50.6877 133.703 50.6961 133.768C50.6961 133.888 51.0961 136.696 50.6961 138.624C50.2961 140.552 36.0281 162.952 35.4201 163.904C35.3983 163.945 35.3668 163.979 35.3284 164.004C35.29 164.029 35.2459 164.044 35.2001 164.048ZM32.3721 162.048L35.1001 163.412C39.3201 156.796 49.8641 140.04 50.1641 138.536C50.4641 137.032 50.2681 134.804 50.1881 134.096L41.6001 133.664C41.6001 134.436 41.6001 136.464 41.3561 137.176C41.1001 137.976 33.3401 159.396 32.4001 162.04L32.3721 162.048Z" fill="#231F20"/>
<path d="M51.912 165.728L51.668 169.608H53.268L53.456 168.676C53.456 168.676 54.872 169.936 56.384 169.876C57.896 169.816 60.936 170.256 61.028 169.876C61.12 169.496 55.98 167.116 55.98 167.116L51.912 165.728Z" fill="#231F20"/>
<path d="M60.2043 170.328C59.8043 170.328 59.2243 170.296 58.4883 170.248C57.7523 170.2 56.9443 170.152 56.3803 170.172C55.3831 170.127 54.4232 169.78 53.6283 169.176L53.5323 169.664C53.5186 169.727 53.4838 169.784 53.4336 169.825C53.3835 169.865 53.3209 169.888 53.2563 169.888H51.6563C51.618 169.888 51.5801 169.881 51.545 169.866C51.5099 169.85 51.4783 169.828 51.4523 169.8C51.4265 169.772 51.4065 169.739 51.3935 169.704C51.3804 169.668 51.3746 169.63 51.3763 169.592L51.6243 165.712C51.6259 165.669 51.638 165.626 51.6596 165.589C51.6812 165.551 51.7116 165.519 51.7483 165.496C51.7838 165.473 51.8243 165.457 51.8666 165.452C51.9088 165.446 51.9518 165.45 51.9923 165.464L56.0483 166.868C61.4243 169.36 61.3363 169.72 61.2763 169.96C61.2163 170.2 60.9163 170.328 60.2043 170.328ZM56.6283 169.608C57.1803 169.608 57.8603 169.648 58.5243 169.692C59.1883 169.736 60.0123 169.784 60.4883 169.764C58.9854 168.892 57.4379 168.099 55.8523 167.388L52.1683 166.116L51.9643 169.316H53.0283L53.1683 168.608C53.1778 168.56 53.1998 168.515 53.2323 168.478C53.2647 168.441 53.3064 168.413 53.3531 168.397C53.3998 168.381 53.4498 168.378 53.4981 168.388C53.5464 168.397 53.5913 168.419 53.6283 168.452C53.6283 168.452 54.9723 169.652 56.3643 169.6L56.6283 169.608Z" fill="#231F20"/>
<path d="M32.0362 162.18L30.6802 166.2L32.0362 166.664L33.0162 165.464C33.0162 165.464 34.8842 167.24 35.3522 167.612C35.8202 167.984 39.7002 169.08 39.7922 168.368C39.8842 167.656 35.6002 165.308 35.2002 163.768L32.0362 162.18Z" fill="#231F20"/>
<path d="M39.2001 168.868C37.9481 168.868 35.6001 168.132 35.2001 167.82C34.8001 167.508 33.5761 166.344 33.0641 165.86L32.2641 166.84C32.2285 166.885 32.1798 166.918 32.1247 166.935C32.0696 166.951 32.0107 166.95 31.9561 166.932L30.6001 166.464C30.5301 166.44 30.4725 166.389 30.4396 166.322C30.4067 166.255 30.4011 166.179 30.4241 166.108L31.7801 162.108C31.7937 162.071 31.8149 162.036 31.8425 162.007C31.87 161.978 31.9033 161.955 31.9401 161.94C31.9765 161.923 32.0161 161.915 32.0561 161.915C32.0962 161.915 32.1358 161.923 32.1721 161.94L35.3521 163.54C35.388 163.559 35.4194 163.585 35.4442 163.616C35.4691 163.648 35.4868 163.685 35.4961 163.724C35.6841 164.492 37.0961 165.592 38.2481 166.476C39.5281 167.468 40.1441 167.964 40.0841 168.416C40.0705 168.507 40.0318 168.593 39.9725 168.663C39.9132 168.734 39.8356 168.787 39.7481 168.816C39.5697 168.864 39.3844 168.882 39.2001 168.868ZM33.0361 165.168C33.0719 165.168 33.1072 165.175 33.1402 165.189C33.1732 165.202 33.2031 165.223 33.2281 165.248C33.2281 165.248 35.0961 167.02 35.5481 167.38C36.0001 167.74 38.9601 168.516 39.5241 168.284C39.3961 168.04 38.5441 167.384 37.9241 166.896C36.7241 165.952 35.3361 164.896 35.0121 163.964L32.2121 162.572L31.0481 166.024L31.9561 166.336L32.8001 165.272C32.8239 165.243 32.8536 165.218 32.8874 165.201C32.9212 165.184 32.9583 165.174 32.9961 165.172L33.0361 165.168Z" fill="#231F20"/>
<path d="M59.7802 112.336C59.7802 112.336 62.4442 130.564 62.1802 135.052C62.1802 135.052 48.9522 139.196 40.2602 135.128C40.2602 135.128 41.0042 129.148 39.6042 124.596C38.2042 120.044 37.6402 115.28 39.6042 112.336C39.6002 112.336 53.2002 117.524 59.7802 112.336Z" fill="#231F20"/>
<path d="M49.6442 137.2C46.3962 137.2 43.0082 136.748 40.1242 135.396C40.0709 135.371 40.0268 135.329 39.9981 135.278C39.9695 135.226 39.9576 135.167 39.9642 135.108C39.9642 135.048 40.6882 129.136 39.3202 124.708C38.1202 120.824 37.1562 115.508 39.3522 112.208C39.3883 112.156 39.4412 112.117 39.5021 112.098C39.5631 112.079 39.6286 112.081 39.6882 112.104C39.8202 112.152 53.2162 117.176 59.6042 112.144C59.6428 112.113 59.6889 112.093 59.7377 112.086C59.7866 112.079 59.8365 112.085 59.8825 112.103C59.9284 112.121 59.9686 112.151 59.9991 112.19C60.0296 112.229 60.0493 112.275 60.0562 112.324C60.1642 113.068 62.7202 130.632 62.4562 135.096C62.452 135.153 62.4311 135.207 62.3963 135.252C62.3614 135.297 62.314 135.33 62.2602 135.348C58.1557 136.523 53.9131 137.146 49.6442 137.2ZM40.5442 134.976C48.4842 138.576 60.2722 135.328 61.8922 134.856C62.0682 130.572 59.9722 115.684 59.5682 112.856C56.0802 115.304 50.9362 115.152 47.1682 114.576C44.6276 114.172 42.1283 113.542 39.7002 112.692C37.7802 115.82 38.7162 120.836 39.8562 124.532C41.1282 128.652 40.6642 133.852 40.5442 134.96V134.976Z" fill="#231F20"/>
<path d="M80.3402 98.7161L85.0682 98.0881C85.0682 98.0881 87.9682 96.0881 88.7602 95.8521C89.5522 95.6161 93.9162 96.2001 93.7122 96.5801C93.5082 96.9601 92.4002 96.9321 92.0602 96.9801C91.5482 97.0281 91.0362 97.0521 90.5242 97.0841C91.0184 97.9533 91.2044 98.9639 91.0522 99.9521C90.9981 100.342 90.8425 100.711 90.601 101.022C90.3596 101.333 90.0406 101.575 89.6762 101.724C89.4734 101.809 89.2473 101.822 89.0362 101.76C88.9317 101.727 88.8405 101.661 88.7758 101.573C88.711 101.484 88.6762 101.378 88.6762 101.268L88.5962 101.292C87.9304 101.535 87.2319 101.676 86.5242 101.712C85.9642 101.712 85.4642 101.424 84.9242 101.536C84.1433 101.752 83.3776 102.019 82.6322 102.336L78.4922 103.788L80.3402 98.7161Z" fill="white"/>
<path d="M78.5002 104.056C78.4551 104.056 78.4106 104.046 78.3705 104.025C78.3305 104.004 78.296 103.974 78.2701 103.937C78.2442 103.9 78.2275 103.858 78.2216 103.813C78.2157 103.768 78.2207 103.723 78.2362 103.68L80.0762 98.6202C80.0938 98.5727 80.1239 98.531 80.1634 98.4993C80.2028 98.4676 80.2501 98.4472 80.3002 98.4402L84.9642 97.8202C85.4482 97.4882 87.9082 95.8202 88.6842 95.5802C89.3962 95.3762 93.4842 95.8042 93.9202 96.3362C93.9632 96.3887 93.9899 96.4527 93.997 96.5202C94.0041 96.5877 93.9913 96.6558 93.9602 96.7162C93.7402 97.1162 93.0562 97.1922 92.3122 97.2322H92.0882C91.7282 97.2682 91.3682 97.2882 91.0082 97.3122H90.9842C91.3386 98.1511 91.4575 99.0707 91.3282 99.9722C91.2686 100.413 91.0932 100.831 90.8199 101.182C90.5466 101.533 90.1851 101.806 89.7722 101.972C89.5092 102.082 89.2157 102.095 88.9442 102.008C88.7428 101.94 88.5753 101.796 88.4762 101.608C87.8467 101.824 87.1892 101.948 86.5242 101.976C86.2664 101.965 86.0104 101.927 85.7602 101.864C85.512 101.787 85.2504 101.762 84.9922 101.792C84.4788 101.917 83.977 102.086 83.4922 102.296C83.2362 102.396 82.9802 102.496 82.7322 102.584L78.5922 104.036C78.5631 104.049 78.5319 104.055 78.5002 104.056ZM80.5442 98.9722L78.9442 103.316L82.5442 102.06C82.7842 101.976 83.0322 101.876 83.2802 101.78C83.7968 101.556 84.3322 101.378 84.8802 101.248C85.219 101.198 85.5647 101.224 85.8922 101.324C86.0977 101.384 86.3102 101.417 86.5242 101.42C87.207 101.386 87.8809 101.251 88.5242 101.02L88.6002 100.996C88.6441 100.982 88.6909 100.979 88.7363 100.987C88.7818 100.995 88.8244 101.015 88.8602 101.044C88.8977 101.072 88.9273 101.109 88.9462 101.152C88.9651 101.195 88.9727 101.242 88.9682 101.288C88.9682 101.364 89.0402 101.456 89.1402 101.492C89.292 101.531 89.4524 101.518 89.5962 101.456C89.9154 101.326 90.1946 101.114 90.4054 100.842C90.6161 100.569 90.751 100.246 90.7962 99.9042C90.9364 98.9858 90.7661 98.0468 90.3122 97.2362C90.2876 97.1936 90.2747 97.1453 90.2747 97.0962C90.2747 97.047 90.2876 96.9988 90.3122 96.9562C90.3341 96.9124 90.367 96.875 90.4077 96.8477C90.4483 96.8203 90.4954 96.804 90.5442 96.8002L91.0122 96.7722C91.3642 96.7722 91.7162 96.7322 92.0682 96.6962C92.1282 96.6962 92.2162 96.6962 92.3162 96.6962C92.6183 96.6859 92.9192 96.6524 93.2162 96.5962C92.2402 96.3202 89.4962 95.9682 88.8722 96.1442C88.2482 96.3202 86.0722 97.7922 85.2722 98.3442C85.2342 98.3677 85.1921 98.3839 85.1482 98.3922L80.5442 98.9722Z" fill="#231F20"/>
<path d="M39.1401 112.76C39.1401 112.76 41.7201 92.0121 44.6921 87.8241C47.6641 83.6361 54.9561 82.9641 58.3321 85.6641C61.7081 88.3641 59.9321 113.12 59.9321 113.12C59.9321 113.12 49.2001 116.132 39.1401 112.76Z" fill="#294A75"/>
<path d="M58.3319 85.6641C58.3319 85.6641 61.6479 86.4641 63.2679 89.4401C64.8879 92.4161 66.6199 96.5281 66.6199 96.5281L82.7519 97.8721L83.4959 103.008C83.4959 103.008 73.0959 106.208 67.9319 107.1C63.6599 107.856 61.3959 105.716 59.5319 103.56C58.8028 102.581 58.1527 101.546 57.5879 100.464L58.3319 85.6641Z" fill="#294A75"/>
<path d="M59.0803 76.5042C59.0803 76.5042 60.5843 78.9841 60.2323 79.4721C59.8803 79.9601 58.8003 79.6002 58.8003 79.6002" fill="white"/>
<path d="M59.6001 80C59.3022 79.9929 59.007 79.9416 58.7241 79.848C58.6541 79.8235 58.5967 79.7723 58.5645 79.7056C58.5323 79.6389 58.5278 79.5621 58.5521 79.492C58.5766 79.422 58.6277 79.3644 58.6942 79.3315C58.7607 79.2986 58.8375 79.293 58.9081 79.316C59.2681 79.44 59.8721 79.52 60.0281 79.316C60.1161 79.08 59.5721 77.832 58.8601 76.656C58.8375 76.6248 58.8217 76.5892 58.8135 76.5516C58.8053 76.5139 58.805 76.475 58.8126 76.4372C58.8201 76.3994 58.8354 76.3636 58.8575 76.332C58.8795 76.3004 58.9078 76.2736 58.9407 76.2535C58.9735 76.2333 59.0102 76.2202 59.0484 76.2149C59.0865 76.2095 59.1254 76.2121 59.1625 76.2225C59.1996 76.2329 59.2342 76.2508 59.2641 76.2752C59.2939 76.2995 59.3184 76.3298 59.3361 76.364C59.9361 77.352 60.8801 79.088 60.4801 79.644C60.3726 79.7695 60.2366 79.8673 60.0834 79.9292C59.9303 79.9912 59.7645 80.0155 59.6001 80Z" fill="#231F20"/>
<path d="M58.8603 73.2921C59.8443 74.1641 59.4843 75.9081 59.4283 77.0481C59.3563 78.6481 59.2456 80.2481 59.0963 81.8481C59.0043 82.8641 56.3643 82.7841 55.8963 82.4641L56.4523 85.0081L50.6963 84.1641L51.0483 80.8441C51.0483 80.8441 50.6803 76.2241 51.7923 74.1921C52.1168 73.6082 52.5973 73.1262 53.1801 72.7998C53.7628 72.4734 54.4249 72.3156 55.0923 72.3441C55.0923 72.3441 57.8963 72.4441 58.8603 73.2921Z" fill="white"/>
<path d="M56.4683 85.3002H56.4283L50.6723 84.4562C50.6363 84.4517 50.6015 84.4402 50.57 84.4223C50.5385 84.4044 50.5108 84.3805 50.4885 84.3519C50.4662 84.3233 50.4497 84.2906 50.4401 84.2556C50.4305 84.2207 50.4278 84.1842 50.4323 84.1482L50.7883 80.8322C50.7883 80.6922 50.4243 76.1562 51.5603 74.0722C51.906 73.4355 52.425 72.9098 53.0572 72.5558C53.6893 72.2019 54.4088 72.0342 55.1323 72.0722C55.2323 72.0722 58.0203 72.1722 59.0443 73.0802C59.9683 73.8802 59.8443 75.3082 59.7563 76.4442C59.7563 76.6602 59.7203 76.8682 59.7083 77.0602C59.6363 78.6602 59.5243 80.2602 59.3763 81.8842C59.3488 82.0659 59.272 82.2366 59.1542 82.3776C59.0364 82.5187 58.8822 82.6247 58.7083 82.6842C57.9327 82.9603 57.0982 83.0279 56.2883 82.8802L56.7443 84.9442C56.7531 84.9883 56.7511 85.0338 56.7386 85.077C56.7261 85.1201 56.7033 85.1596 56.6723 85.1922C56.6483 85.224 56.6176 85.2502 56.5823 85.2689C56.5471 85.2875 56.5081 85.2982 56.4683 85.3002ZM51.0163 83.9362L56.1083 84.6842L55.6363 82.5362C55.6243 82.4805 55.6293 82.4225 55.6507 82.3697C55.6721 82.3169 55.7089 82.2718 55.7563 82.2402C55.8026 82.2078 55.8578 82.1905 55.9143 82.1905C55.9708 82.1905 56.0259 82.2078 56.0723 82.2402C56.8584 82.4735 57.6979 82.4539 58.4723 82.1842C58.6843 82.0842 58.8003 81.9642 58.8123 81.8282C58.9603 80.2282 59.0723 78.6282 59.1483 77.0282C59.1483 76.8322 59.1723 76.6282 59.1923 76.3922C59.2763 75.3842 59.3843 74.1242 58.6723 73.4962C57.9443 72.8522 55.8443 72.6522 55.0963 72.6282C54.4797 72.596 53.8666 72.7384 53.3274 73.0391C52.7882 73.3399 52.3448 73.7867 52.0483 74.3282C50.9923 76.2682 51.3363 80.7802 51.3403 80.8282L51.0163 83.9362Z" fill="#231F20"/>
<path d="M49.6001 84.9562L50.1201 83.2002L57.2001 83.8842L57.6001 85.4842C56.31 85.9906 54.924 86.2059 53.5411 86.1146C52.1581 86.0233 50.8124 85.6278 49.6001 84.9562Z" fill="white"/>
<path d="M54.2283 86.428C52.5582 86.4183 50.9163 85.9965 49.4483 85.2C49.3914 85.1682 49.347 85.1181 49.3223 85.0578C49.2976 84.9975 49.2941 84.9306 49.3123 84.868L49.8523 83.112C49.8738 83.0518 49.9143 83.0001 49.9676 82.9647C50.021 82.9294 50.0844 82.9123 50.1483 82.916L57.2003 83.6C57.2581 83.6052 57.3128 83.6285 57.3566 83.6666C57.4004 83.7046 57.4311 83.7555 57.4443 83.812L57.8443 85.412C57.8597 85.4747 57.853 85.5408 57.8253 85.5991C57.7976 85.6574 57.7506 85.7044 57.6923 85.732C56.5975 86.199 55.4185 86.4359 54.2283 86.428ZM49.9163 84.828C51.0415 85.4097 52.2738 85.7552 53.5374 85.8432C54.801 85.9313 56.0693 85.76 57.2643 85.34L56.9683 84.14L50.3203 83.496L49.9163 84.828Z" fill="#231F20"/>
<path d="M39.0002 110.488C38.926 110.488 38.8547 110.459 38.8022 110.406C38.7497 110.354 38.7202 110.282 38.7202 110.208C38.7202 104.8 41.5722 94.2481 41.8122 93.5241C41.824 93.4891 41.8426 93.4569 41.8669 93.4291C41.8912 93.4014 41.9207 93.3787 41.9538 93.3623C41.9868 93.346 42.0228 93.3363 42.0596 93.3339C42.0964 93.3314 42.1333 93.3362 42.1682 93.3481C42.2031 93.3599 42.2354 93.3785 42.2632 93.4028C42.2909 93.427 42.3136 93.4566 42.3299 93.4896C42.3463 93.5227 42.356 93.5586 42.3584 93.5954C42.3609 93.6322 42.356 93.6691 42.3442 93.7041C42.1042 94.4161 39.2722 104.868 39.2802 110.208C39.2792 110.282 39.2493 110.353 39.1971 110.405C39.1448 110.457 39.0742 110.487 39.0002 110.488Z" fill="#231F20"/>
<path d="M54.0559 81.2001C54.0559 81.2401 54.0559 81.2801 54.0559 81.3201C54.0856 83.6458 53.5992 85.949 52.6319 88.0641C52.095 89.3573 51.2555 90.5028 50.1839 91.4041C49.0567 92.2238 47.7393 92.7428 46.3559 92.9121C45.1741 93.1384 43.9537 93.0515 42.8159 92.6601C40.9679 91.9321 39.7359 90.0321 39.4839 88.0641C39.2319 86.0961 39.8439 84.0841 40.8559 82.3761C41.9239 80.5641 43.5279 79.1761 44.6159 77.4121C45.7919 75.4841 46.4799 73.2201 47.8159 71.3881C49.9119 68.4801 54.3119 67.4361 57.5879 69.0681C58.3039 68.3681 59.6679 68.9361 60.0399 69.8681C60.1857 70.2867 60.2449 70.7305 60.2139 71.1726C60.183 71.6147 60.0625 72.046 59.8599 72.4401C59.7999 72.5401 58.7959 73.6161 58.8479 73.2761C58.7159 74.1761 58.1239 74.6081 57.4039 75.1761C56.6524 75.7102 55.874 76.2055 55.0719 76.6601C53.0919 77.9241 53.9999 79.3081 54.0559 81.2001Z" fill="white"/>
<path d="M44.9362 93.3241C44.179 93.3308 43.4273 93.1951 42.7202 92.9241C40.8722 92.1961 39.4922 90.3041 39.2082 88.1041C38.9042 85.7401 39.8082 83.6121 40.6202 82.2361C41.1952 81.3199 41.8468 80.4541 42.5682 79.6481C43.233 78.8958 43.8388 78.0935 44.3802 77.2481C44.8775 76.4002 45.3249 75.5241 45.7202 74.6241C46.2299 73.4295 46.8514 72.2858 47.5762 71.2081C49.7202 68.2321 54.1522 67.1401 57.5362 68.7201C57.7098 68.6016 57.9062 68.5208 58.1129 68.483C58.3196 68.4451 58.5319 68.4509 58.7362 68.5001C59.0717 68.5714 59.3857 68.7208 59.6526 68.9363C59.9195 69.1517 60.1318 69.4271 60.2722 69.7401C60.4352 70.1992 60.5016 70.687 60.4672 71.173C60.4328 71.6589 60.2983 72.1326 60.0722 72.5641C59.788 72.9434 59.4418 73.272 59.0482 73.5361C58.8522 74.3361 58.2882 74.7921 57.6482 75.3001L57.5522 75.3761C57.0539 75.7533 56.53 76.0955 55.9842 76.4001C55.7202 76.5561 55.4522 76.7121 55.1842 76.8761C53.8522 77.7241 53.9842 78.5641 54.1682 79.8361C54.2431 80.2781 54.2912 80.7243 54.3122 81.1721V81.2601C54.3455 83.6401 53.8509 85.998 52.8642 88.1641C52.3117 89.5003 51.4428 90.6822 50.3322 91.6081C49.1788 92.4655 47.8252 93.0135 46.4002 93.2001C45.9161 93.2788 45.4267 93.3202 44.9362 93.3241ZM54.1762 68.5881C52.9906 68.5711 51.8175 68.8318 50.7507 69.3492C49.6839 69.8666 48.7529 70.6265 48.0322 71.5681C47.3281 72.6172 46.7242 73.7301 46.2282 74.8921C45.8222 75.8108 45.3641 76.7055 44.8562 77.5721C44.3003 78.4348 43.6784 79.2533 42.9962 80.0201C42.2963 80.804 41.6622 81.6441 41.1002 82.5321C40.3362 83.8321 39.5002 85.8401 39.7642 88.0441C40.0202 90.0441 41.2642 91.7601 42.9242 92.4121C44.0134 92.7924 45.1843 92.8753 46.3162 92.6521C47.6474 92.488 48.9151 91.9884 50.0002 91.2001C51.0387 90.3295 51.8511 89.2207 52.3682 87.9681C53.3157 85.8898 53.7924 83.628 53.7642 81.3441V81.2281C53.7437 80.8016 53.697 80.3768 53.6242 79.9561C53.4362 78.6841 53.2562 77.4841 54.8962 76.4401C55.1602 76.2721 55.4322 76.1121 55.6962 75.9521C56.2187 75.6606 56.7212 75.3345 57.2002 74.9761L57.2962 74.8961C57.9522 74.3761 58.4282 74.0001 58.5362 73.2521C58.5481 73.1787 58.5882 73.1129 58.648 73.0688C58.7079 73.0246 58.7826 73.0057 58.8562 73.0161H58.8802C59.1356 72.7961 59.3737 72.5567 59.5922 72.3001C59.7718 71.9441 59.8782 71.5557 59.905 71.1579C59.9318 70.7601 59.8785 70.3609 59.7482 69.9841C59.6443 69.7555 59.4881 69.5545 59.2921 69.3974C59.0962 69.2404 58.866 69.1317 58.6202 69.0801C58.4699 69.0399 58.312 69.0376 58.1606 69.0732C58.0092 69.1087 57.8689 69.1812 57.7522 69.2841C57.7109 69.3249 57.6579 69.3518 57.6005 69.3611C57.5432 69.3704 57.4844 69.3617 57.4322 69.3361C56.4188 68.8399 55.3046 68.584 54.1762 68.5881Z" fill="#231F20"/>
<path d="M59.1043 80.6601C59.1043 80.6601 57.8283 81.3801 57.2163 80.0681L59.1043 80.6601Z" fill="white"/>
<path d="M58.3362 81.1362C58.1841 81.1385 58.0327 81.1155 57.8882 81.0682C57.6796 80.9952 57.4889 80.8786 57.3289 80.7262C57.1689 80.5738 57.0432 80.389 56.9602 80.1842C56.9289 80.1168 56.9256 80.0398 56.9511 79.97C56.9766 79.9003 57.0288 79.8435 57.0962 79.8122C57.1635 79.7809 57.2406 79.7777 57.3103 79.8032C57.3801 79.8287 57.4369 79.8808 57.4682 79.9482C57.52 80.0816 57.5991 80.2028 57.7003 80.3041C57.8015 80.4053 57.9227 80.4843 58.0562 80.5362C58.3647 80.6076 58.6886 80.565 58.9682 80.4162C59.0012 80.3958 59.038 80.3824 59.0765 80.3767C59.1149 80.3711 59.1541 80.3735 59.1915 80.3836C59.229 80.3937 59.264 80.4114 59.2944 80.4356C59.3248 80.4598 59.3499 80.4899 59.3682 80.5242C59.3865 80.5561 59.3982 80.5914 59.4027 80.628C59.4072 80.6645 59.4043 80.7016 59.3942 80.737C59.3842 80.7724 59.3671 80.8054 59.3441 80.8341C59.3211 80.8629 59.2925 80.8867 59.2602 80.9042C58.9753 81.0548 58.6583 81.1344 58.3362 81.1362Z" fill="#231F20"/>
<path d="M55.9562 77.412C55.9315 77.0096 55.7928 76.6225 55.5562 76.296C55.4134 76.0176 55.227 75.7637 55.0042 75.544C54.893 75.4333 54.7583 75.3489 54.6102 75.297C54.4621 75.2451 54.3043 75.227 54.1482 75.244C54.013 75.2737 53.8855 75.3314 53.7739 75.4134C53.6623 75.4954 53.569 75.5998 53.5002 75.72C53.3616 75.9649 53.2821 76.2389 53.2682 76.52C53.218 77.1235 53.3276 77.7296 53.586 78.2773C53.8444 78.825 54.2425 79.295 54.7402 79.64L54.6562 79.54" fill="white"/>
<path d="M54.7321 79.9082C54.6765 79.9078 54.6222 79.8911 54.5761 79.8602C54.0374 79.4856 53.6062 78.9765 53.3255 78.3834C53.0448 77.7904 52.9243 77.1342 52.9761 76.4802C52.9968 76.1608 53.0898 75.8503 53.2481 75.5722C53.3376 75.4172 53.4592 75.2831 53.6048 75.1789C53.7503 75.0747 53.9165 75.0029 54.0921 74.9682C54.2894 74.9439 54.4897 74.9643 54.678 75.0281C54.8664 75.0918 55.038 75.1971 55.1801 75.3362C55.4226 75.5701 55.6276 75.8399 55.7881 76.1362C56.0538 76.5079 56.2078 76.9479 56.2321 77.4042C56.2263 77.4768 56.1943 77.5449 56.1421 77.5957C56.0898 77.6465 56.0208 77.6765 55.9481 77.6802C55.8734 77.6781 55.8026 77.6467 55.751 77.5928C55.6993 77.5389 55.671 77.4668 55.6721 77.3922C55.6407 77.0406 55.5134 76.7044 55.3041 76.4202C55.173 76.1681 55.0045 75.9375 54.8041 75.7362C54.7246 75.6537 54.6276 75.5901 54.5203 75.5499C54.4131 75.5098 54.2982 75.4942 54.1841 75.5042C54.0883 75.5267 53.9983 75.5689 53.9198 75.6281C53.8413 75.6874 53.776 75.7623 53.7281 75.8482C53.6122 76.054 53.5464 76.2842 53.5361 76.5202C53.4942 77.0327 53.5775 77.5477 53.7789 78.0208C53.9803 78.494 54.2937 78.9111 54.6921 79.2362C54.755 79.249 54.8123 79.2812 54.8561 79.3282L54.9401 79.4282C54.9738 79.4693 54.9953 79.519 55.0021 79.5717C55.0089 79.6244 55.0009 79.678 54.9788 79.7263C54.9567 79.7746 54.9215 79.8158 54.8772 79.8451C54.8328 79.8745 54.7812 79.8907 54.7281 79.8922L54.7321 79.9082Z" fill="#231F20"/>
<path d="M58.9921 75.5709C59.1158 75.5684 59.2109 75.3086 59.2045 74.9905C59.1982 74.6725 59.0928 74.4166 58.9691 74.4191C58.8454 74.4216 58.7503 74.6814 58.7566 74.9995C58.763 75.3175 58.8684 75.5734 58.9921 75.5709Z" fill="#231F20"/>
<path d="M62.8003 106.8C62.7513 106.8 62.7032 106.788 62.6603 106.764C56.6043 103.308 54.4003 92.4641 54.3283 92.0001C54.3181 91.9629 54.3157 91.9241 54.3213 91.8861C54.3268 91.848 54.3401 91.8115 54.3603 91.7788C54.3806 91.7461 54.4074 91.7179 54.439 91.696C54.4707 91.6741 54.5065 91.659 54.5442 91.6515C54.582 91.6441 54.6208 91.6445 54.6584 91.6528C54.696 91.661 54.7315 91.6769 54.7626 91.6995C54.7938 91.7221 54.8199 91.7508 54.8395 91.7839C54.8591 91.8171 54.8716 91.8539 54.8763 91.8921C54.9003 92.0041 57.1043 102.944 62.9483 106.292C62.9957 106.326 63.0315 106.373 63.0507 106.428C63.0698 106.483 63.0713 106.543 63.0551 106.599C63.0388 106.655 63.0055 106.704 62.9598 106.74C62.9142 106.776 62.8584 106.797 62.8003 106.8Z" fill="#231F20"/>
</svg>
