<svg width="24" height="16" viewBox="0 0 24 16" fill="none" xmlns="http://www.w3.org/2000/svg">
<path d="M22.2026 0.138672H1.79742C0.804703 0.138672 0 0.943375 0 1.93609V14.0654C0 15.0581 0.804703 15.8628 1.79742 15.8628H22.2026C23.1952 15.8628 24 15.0581 24 14.0654V1.93609C24 0.943375 23.1953 0.138672 22.2026 0.138672Z" fill="#41479B"/>
<path d="M23.9751 1.639C23.8335 0.787797 23.094 0.138672 22.2026 0.138672H21.7349L14.069 5.16119V0.138719H9.93103V5.16123L2.26509 0.138719H1.79742C0.906 0.138719 0.166547 0.787797 0.0248906 1.63905L6.57698 5.93186H0V10.0698H6.57698L0.0248906 14.3625C0.166547 15.2137 0.906 15.8628 1.79742 15.8628H2.26509L9.93103 10.8403V15.8628H14.069V10.8403L21.7349 15.8628H22.2026C23.094 15.8628 23.8335 15.2138 23.9751 14.3625L17.423 10.0697H24V5.93177H17.423L23.9751 1.639Z" fill="#F5F5F5"/>
<path d="M13.2414 0.138672H10.7586V6.75934H0V9.24212H10.7586V15.8628H13.2414V9.24212H24V6.75934H13.2414V0.138672Z" fill="#FF4B55"/>
<path d="M1.16183 15.7461L9.90791 10.0689H8.38784L0.432031 15.2332C0.628401 15.4627 0.879375 15.6391 1.16183 15.7461ZM16.2366 10.0689H14.7165L23.1876 15.5675C23.4251 15.4114 23.6225 15.2014 23.7635 14.9547L16.2366 10.0689ZM0.189453 1.13155L7.58305 5.93094H9.10311L0.725047 0.4925C0.499078 0.660786 0.315651 0.879642 0.189453 1.13155ZM15.5887 5.93094L23.5591 0.757109C23.3605 0.528185 23.1074 0.353087 22.8232 0.248047L14.0686 5.93094H15.5887Z" fill="#FF4B55"/>
</svg>
