<svg width="131" height="64" viewBox="0 0 131 64" fill="none" xmlns="http://www.w3.org/2000/svg">
<g clip-path="url(#clip0_769_8615)">
<path d="M8.89077 49.682H3.17197L2.23555 51.7529H0L4.90587 40.7458H7.14915L12.055 51.7529H9.80403L8.89077 49.682ZM6.03008 43.0627L3.99776 47.7482H8.05984L6.03008 43.0627Z" fill="#E2E4E6"/>
<path d="M21.7666 40.7666V47.0726C21.7666 50.3292 19.7831 51.9911 17.0305 51.9911C14.4039 51.9911 12.1709 50.3861 12.1709 47.0726V40.7666H14.2289V47.0726C14.2289 49.053 15.3532 50.1066 17.0588 50.1066C18.7644 50.1066 19.7317 48.9598 19.7317 47.0726V40.7666H21.7666Z" fill="#E2E4E6"/>
<path d="M26.6104 42.6381H23.1426V40.751H32.1465V42.6381H28.6736V51.7581H26.6155L26.6104 42.6381Z" fill="#E2E4E6"/>
<path d="M44.1452 46.3167C44.1143 49.1643 42.3804 52.0118 38.5344 52.0118C34.6884 52.0118 32.9082 49.229 32.9082 46.3348C32.9082 43.4407 34.7527 40.531 38.5344 40.531C42.3161 40.531 44.176 43.4407 44.1452 46.3167ZM34.9405 46.3633C34.9868 48.1754 35.9567 50.1065 38.5421 50.1065C41.1275 50.1065 42.082 48.1624 42.1128 46.3504C42.1437 44.4943 41.1121 42.4181 38.5344 42.4181C35.9567 42.4181 34.8942 44.5098 34.9328 46.3633H34.9405Z" fill="#E2E4E6"/>
<path d="M58.3432 43.785L54.7802 48.5663H54.3814L50.8828 43.7617V51.7866H48.8247V40.7666H51.1992L54.6207 45.4987L58.0422 40.7666H60.4012V51.7866H58.3432V43.785Z" fill="#E2E4E6"/>
<path d="M70.5063 51.7581H62.3179V40.751H70.5063V42.765H64.3656V45.2967H70.2825V47.2305H64.3656V49.7156H70.5063V51.7581Z" fill="#E2E4E6"/>
<path d="M81.7533 50.3732C81.2032 50.9103 80.5522 51.3316 79.8384 51.6125C79.1246 51.8935 78.3623 52.0283 77.596 52.0092C73.5339 52.0092 71.8129 49.1954 71.7975 46.3323C71.782 43.4692 73.642 40.5284 77.596 40.5284C78.3427 40.5275 79.0822 40.6758 79.7716 40.9646C80.4609 41.2535 81.0864 41.6772 81.6118 42.2111L80.2355 43.5468C79.5229 42.8678 78.5747 42.4962 77.5934 42.5114C74.9514 42.5114 73.8118 44.4917 73.8272 46.3323C73.8426 48.1728 74.8897 50.06 77.5934 50.06C78.6158 50.05 79.5961 49.6493 80.3358 48.9391L81.7533 50.3732Z" fill="#E2E4E6"/>
<path d="M90.3536 51.7866V47.3237H84.977V51.7866H82.9189V40.7666H84.977V45.4055H90.3536V40.7666H92.4117V51.7866H90.3536Z" fill="#E2E4E6"/>
<path d="M102.105 49.682H96.3863L95.4499 51.7529H93.2144L98.1202 40.7458H100.371L105.277 51.7529H103.026L102.105 49.682ZM99.247 43.0627L97.2147 47.7482H101.277L99.247 43.0627Z" fill="#E2E4E6"/>
<path d="M113.396 40.7355H115.454V51.7581H114.168V51.7866L108.418 44.3493V51.771H106.36V40.751H108.032L113.396 47.5748V40.7355Z" fill="#E2E4E6"/>
<path d="M117.371 51.7581V40.751H119.429V51.7581H117.371Z" fill="#E2E4E6"/>
<path d="M130.997 50.3732C130.447 50.9103 129.796 51.3316 129.083 51.6125C128.369 51.8935 127.606 52.0283 126.84 52.0092C122.778 52.0092 121.057 49.1954 121.042 46.3323C121.026 43.4692 122.886 40.5284 126.84 40.5284C127.587 40.5275 128.326 40.6758 129.016 40.9646C129.705 41.2535 130.331 41.6772 130.856 42.2111L129.48 43.5468C128.767 42.8678 127.819 42.4962 126.838 42.5114C124.196 42.5114 123.056 44.4917 123.071 46.3323C123.087 48.1728 124.134 50.06 126.838 50.06C127.868 50.056 128.858 49.6548 129.603 48.9391L130.997 50.3732Z" fill="#E2E4E6"/>
<path d="M33.5024 63.8861H32.7126L32.1003 62.3328L31.5858 60.7796L31.0713 62.3587L30.4719 63.912H29.6821L27.8813 58.952H28.9232L30.086 62.5296L31.2823 58.952H31.8868L33.1191 62.5296L34.2459 58.952H35.2878L33.5024 63.8861Z" fill="#E2E4E6"/>
<path d="M39.5246 63.8861H35.833V58.9261H39.5221V59.8322H36.7566V60.9738H39.4269V61.8462H36.7566V62.9671H39.5246V63.8861Z" fill="#E2E4E6"/>
<path d="M44.3406 63.9068H43.3759L41.3179 58.9261H42.3598L43.8467 62.7885L45.3388 58.9261H46.3807L44.3406 63.9068Z" fill="#E2E4E6"/>
<path d="M50.4608 62.949H47.8882L47.4663 63.8835H46.4604L48.6729 58.9236H49.6864L51.8988 63.8835H50.8827L50.4608 62.949ZM49.1745 59.9668L48.2587 62.0792H50.0903L49.1745 59.9668Z" fill="#E2E4E6"/>
<path d="M53.314 58.9261V63.0214H55.8479V63.8861H52.3853V58.9261H53.314Z" fill="#E2E4E6"/>
<path d="M60.5402 58.9314V61.7789C60.5402 63.2467 59.6449 63.9975 58.4075 63.9975C57.2241 63.9975 56.2183 63.2752 56.2183 61.7789V58.9314H57.1418V61.7789C57.1418 62.672 57.6563 63.1458 58.4281 63.1458C59.1999 63.1458 59.6321 62.628 59.6321 61.7789V58.9314H60.5402Z" fill="#E2E4E6"/>
<path d="M65.1244 63.8861H61.4302V58.9261H65.1192V59.8322H62.3563V60.9738H65.0318V61.8462H62.3563V62.9671H65.1244V63.8861Z" fill="#E2E4E6"/>
<path d="M69.3432 60.9738L70.6527 58.9261H71.7717V58.9676L69.8063 61.8384V63.8861H68.8905V61.8384L66.9971 58.9676V58.9261H68.1033L69.3432 60.9738Z" fill="#E2E4E6"/>
<path d="M77.0278 61.4346C77.0149 62.7289 76.2329 63.9999 74.4989 63.9999C72.765 63.9999 71.9624 62.747 71.9624 61.4423C71.9624 60.1376 72.7933 58.8278 74.4989 58.8278C76.2046 58.8278 77.0406 60.1376 77.0278 61.4346ZM72.8808 61.4553C72.9014 62.2707 73.3387 63.1431 74.5015 63.1431C75.6643 63.1431 76.0991 62.2655 76.1145 61.4501C76.13 60.6347 75.6643 59.6794 74.5015 59.6794C73.3387 59.6794 72.8577 60.6191 72.8782 61.4553H72.8808Z" fill="#E2E4E6"/>
<path d="M82.0338 58.9314V61.7789C82.0338 63.2467 81.1386 63.9975 79.9012 63.9975C78.7178 63.9975 77.7119 63.2752 77.7119 61.7789V58.9314H78.6355V61.7789C78.6355 62.672 79.15 63.1458 79.9218 63.1458C80.6935 63.1458 81.1257 62.628 81.1257 61.7789V58.9314H82.0338Z" fill="#E2E4E6"/>
<path d="M87.3153 63.8861H86.2091L84.7736 62.2268H83.8784V63.8861H82.9497V58.9185H85.2959C86.4587 58.9185 87.0709 59.6951 87.0709 60.5623C87.0956 60.9313 86.9811 61.2961 86.7503 61.584C86.5196 61.8718 86.1895 62.0616 85.8258 62.1155L87.3179 63.8085L87.3153 63.8861ZM83.8784 59.7986V61.3855H85.2933C85.4006 61.3917 85.5081 61.3757 85.6091 61.3386C85.7101 61.3015 85.8025 61.2441 85.8807 61.1698C85.9588 61.0955 86.0211 61.006 86.0636 60.9066C86.1062 60.8073 86.1281 60.7002 86.1281 60.592C86.1281 60.4839 86.1062 60.3768 86.0636 60.2775C86.0211 60.1781 85.9588 60.0886 85.8807 60.0143C85.8025 59.94 85.7101 59.8825 85.6091 59.8455C85.5081 59.8084 85.4006 59.7924 85.2933 59.7986H83.8784Z" fill="#E2E4E6"/>
<path d="M93.4637 63.2622C93.2159 63.5042 92.9226 63.6941 92.601 63.8208C92.2795 63.9475 91.936 64.0084 91.5908 63.9999C89.7592 63.9999 88.9848 62.7315 88.9771 61.4423C88.9694 60.1532 89.808 58.8278 91.5908 58.8278C91.9258 58.8287 92.2574 58.8961 92.5664 59.0263C92.8754 59.1564 93.1559 59.3467 93.3916 59.5862L92.7716 60.1894C92.4508 59.8825 92.0232 59.7143 91.5805 59.7209C91.3533 59.7088 91.1261 59.7451 90.9138 59.8275C90.7015 59.91 90.5089 60.0366 90.3486 60.1991C90.1883 60.3616 90.0639 60.5564 89.9836 60.7706C89.9033 60.9849 89.8689 61.2138 89.8826 61.4423C89.8826 62.2655 90.3611 63.1224 91.5805 63.1224C92.0423 63.1197 92.4857 62.9401 92.8205 62.6202L93.4637 63.2622Z" fill="#E2E4E6"/>
<path d="M97.266 62.949H94.6934L94.2715 63.8835H93.2656L95.4755 58.9236H96.4891L98.7014 63.8835H97.6879L97.266 62.949ZM95.9797 59.9668L95.0638 62.0792H96.8955L95.9797 59.9668Z" fill="#E2E4E6"/>
<path d="M103.486 63.8861H102.38L100.945 62.2268H100.049V63.8861H99.1182V58.9185H101.464C102.627 58.9185 103.239 59.6951 103.239 60.5623C103.264 60.9313 103.15 61.2961 102.919 61.584C102.688 61.8718 102.358 62.0616 101.994 62.1155L103.486 63.8085V63.8861ZM100.049 59.7986V61.3855H101.464C101.572 61.3917 101.679 61.3757 101.78 61.3386C101.881 61.3015 101.974 61.2441 102.052 61.1698C102.13 61.0955 102.192 61.006 102.235 60.9066C102.277 60.8073 102.299 60.7002 102.299 60.592C102.299 60.4839 102.277 60.3768 102.235 60.2775C102.192 60.1781 102.13 60.0886 102.052 60.0143C101.974 59.94 101.881 59.8825 101.78 59.8455C101.679 59.8084 101.572 59.7924 101.464 59.7986H100.049Z" fill="#E2E4E6"/>
<path d="M89.0211 25.382H85.4993V19.5497C85.4993 18.421 83.9558 17.4788 82.1061 17.4788H78.9907C78.0513 17.4553 77.1279 17.7267 76.3487 18.2554L72.5953 21.1262C71.3091 22.1203 69.4722 22.6924 67.5685 22.6924H63.5502C61.6285 22.6924 59.784 22.1125 58.4874 21.1003L54.8189 18.2528C54.0441 17.7067 53.1147 17.4271 52.1692 17.4555H48.8892C47.0498 17.4555 45.496 18.4081 45.496 19.5264V25.382H41.9741V19.5497C41.9741 16.7902 45.0766 14.5458 48.8866 14.5458H52.1692C54.0909 14.5458 55.9328 15.1231 57.2243 16.13L60.8927 18.9776C61.6686 19.526 62.5998 19.8075 63.5476 19.7801H67.5685C68.5064 19.8099 69.4292 19.5378 70.2028 19.0035L73.9639 16.1249C75.2656 15.1334 77.0973 14.5717 78.9907 14.5717H82.1061C85.9186 14.5717 89.0186 16.816 89.0186 19.5756L89.0211 25.382Z" fill="#E2E4E6"/>
<path d="M54.8162 29.032L56.8177 27.4788V31.4499C55.4219 32.3171 53.8093 32.7661 52.1691 32.7442H48.889C45.0739 32.7442 41.9766 30.4972 41.9766 27.7351V21.9183H45.4984V27.7403C45.4984 28.8715 47.0419 29.8268 48.8916 29.8268H52.1691C53.1134 29.8551 54.0417 29.5764 54.8162 29.032Z" fill="#E2E4E6"/>
<path d="M89.021 21.9183V27.7403C89.021 30.5024 85.934 32.7494 82.1086 32.7494H78.9906C77.3835 32.7689 75.8026 32.3387 74.4243 31.5068V27.5643L76.3486 29.0346C77.1264 29.5661 78.0508 29.8378 78.9906 29.8112H82.106C83.9428 29.8112 85.4992 28.856 85.4992 27.7247V21.9183H89.021Z" fill="#E2E4E6"/>
<path d="M87.413 8.85583C87.413 8.73934 87.413 8.62285 87.3925 8.50895C87.3719 8.39505 87.377 8.33551 87.3667 8.25008C87.3564 8.16466 87.3539 8.13877 87.3462 8.07923C87.3384 8.01969 87.323 7.91096 87.3101 7.82036C87.3089 7.81351 87.3089 7.8065 87.3101 7.79965C87.2896 7.67712 87.2664 7.55545 87.2407 7.43465C87.2047 7.25862 87.1609 7.08259 87.1121 6.91691C87.0812 6.80819 87.0503 6.70205 87.0143 6.59333C86.9783 6.4846 86.9423 6.3707 86.9011 6.26198L86.8548 6.14031C86.8162 6.03935 86.7776 5.93839 86.7313 5.8426C86.7238 5.82315 86.7152 5.80414 86.7056 5.78565C86.667 5.69246 86.6258 5.60186 86.577 5.51125C86.5634 5.47549 86.5471 5.44087 86.5281 5.40771C86.4818 5.30934 86.4329 5.21097 86.3763 5.11518C86.3628 5.08566 86.3474 5.05712 86.33 5.02976C86.2811 4.93657 86.2271 4.84597 86.1705 4.75536C86.1473 4.71653 86.1242 4.6777 86.0985 4.63887C86.047 4.55603 85.993 4.46801 85.9338 4.38C85.8746 4.29198 85.7898 4.17032 85.7126 4.06677L85.6225 3.9451C85.5531 3.84932 85.4759 3.75354 85.3987 3.66035C85.3215 3.56715 85.2547 3.4869 85.1801 3.40148C85.0669 3.27204 84.9485 3.14261 84.825 3.02094C84.7582 2.95105 84.6887 2.88374 84.6167 2.81643C84.5446 2.74913 84.4237 2.63264 84.3208 2.54462L84.169 2.41519C84.1519 2.39761 84.133 2.38198 84.1124 2.3686C84.0095 2.28058 83.9015 2.19515 83.796 2.10973L83.5954 1.96217C83.1487 1.64025 82.6773 1.3546 82.1856 1.10791C82.0415 1.03801 81.9 0.968118 81.7534 0.903401C81.4627 0.773967 81.1643 0.644531 80.8556 0.553927C80.7012 0.502154 80.5469 0.452969 80.3899 0.408962L80.1533 0.344245C79.7828 0.248463 79.4072 0.170804 79.0213 0.111265L78.9133 0.0957332C78.4171 0.0272305 77.9169 -0.00736288 77.4161 -0.0078125H53.6121C53.3009 -0.0078125 52.9896 0.00771801 52.6835 0.0310162L52.4571 0.0517221C52.2281 0.077609 52.0017 0.108677 51.7805 0.144919C51.3406 0.219984 50.9058 0.322873 50.4788 0.452973C50.3373 0.49698 50.1984 0.540988 50.0594 0.590173C49.9926 0.610882 49.9205 0.636763 49.8536 0.665239L49.6478 0.742904C49.3126 0.876481 48.9846 1.0277 48.6651 1.19592L48.4773 1.29688L48.2895 1.40561C48.166 1.4755 48.0323 1.54799 47.9268 1.62565L47.7467 1.74213L47.5718 1.86122C47.3968 1.9803 47.2296 2.12008 47.0573 2.23916C46.6229 2.5875 46.2185 2.97198 45.8482 3.38854C45.6629 3.59563 45.4906 3.81049 45.3336 4.03312C45.3269 4.04025 45.3208 4.04805 45.3156 4.05641C45.1587 4.26869 45.0121 4.49132 44.8732 4.71653C44.8037 4.83302 44.7317 4.9521 44.6674 5.07376C44.603 5.19543 44.5362 5.3171 44.477 5.43877C44.4178 5.56044 44.3612 5.69764 44.3046 5.81154C44.303 5.8166 44.303 5.82202 44.3046 5.82707C44.2583 5.93839 44.212 6.0497 44.1683 6.16101C44.1556 6.18975 44.1445 6.21913 44.1348 6.24903C44.0499 6.4846 43.9702 6.72534 43.9033 6.96609C43.8673 7.10243 43.8338 7.24136 43.803 7.38287C43.7747 7.52007 43.7489 7.65468 43.7258 7.79447V7.82295C43.7104 7.91356 43.6975 8.00674 43.6872 8.09993C43.6872 8.15171 43.6718 8.20607 43.6666 8.25785L43.6435 8.51672C43.6435 8.63062 43.628 8.74711 43.6229 8.8636C43.6177 8.98009 43.6229 9.09399 43.6229 9.21048C43.6229 9.39169 43.6229 9.5729 43.6409 9.75411C43.6764 10.3302 43.7712 10.9011 43.9239 11.4575H47.191C47.1447 11.3436 47.101 11.2271 47.0598 11.1106C47.0187 10.9941 47.0032 10.9423 46.9775 10.8517C46.9338 10.6964 46.8952 10.5411 46.8617 10.3806C46.8617 10.334 46.8437 10.2874 46.836 10.2408C46.8283 10.1942 46.818 10.1372 46.8129 10.0855C46.7923 9.97414 46.7794 9.86024 46.7691 9.74634H46.5119L46.7974 8.4753V8.45458C46.7974 8.36657 46.8206 8.27855 46.8335 8.19571C46.836 8.17107 46.8412 8.14678 46.8489 8.12323C46.8489 8.05075 46.8746 7.98086 46.89 7.91097C46.8953 7.87934 46.9031 7.84817 46.9132 7.81777C46.9261 7.75046 46.9441 7.68575 46.9621 7.62104C46.9981 7.48901 47.0393 7.36216 47.0881 7.23014C47.1061 7.17578 47.1267 7.12142 47.1473 7.06964C47.1679 7.01787 47.2013 6.92985 47.2322 6.86255C47.2631 6.79524 47.2939 6.72017 47.3274 6.65286C47.4375 6.42115 47.563 6.19716 47.703 5.98239C47.7493 5.90991 47.7956 5.84002 47.847 5.77271C47.8985 5.70541 47.9397 5.6381 47.9911 5.57339L48.0117 5.5475C48.0606 5.48537 48.1069 5.42324 48.1609 5.3637C48.2664 5.23168 48.3847 5.10483 48.503 4.98058L48.6497 4.8382L48.7037 4.78642C48.7603 4.73206 48.8195 4.6777 48.8812 4.62593C48.943 4.57415 49.0124 4.51203 49.0793 4.45766C49.2311 4.33341 49.388 4.21691 49.5526 4.1056L49.7713 3.96323L49.8279 3.92698L49.9977 3.82603L50.1778 3.72765C50.255 3.68365 50.3347 3.64482 50.4145 3.60599C50.5508 3.54127 50.6846 3.47914 50.8261 3.42219C50.9676 3.36524 51.055 3.32899 51.1734 3.28758L51.4306 3.20733C51.5953 3.15555 51.7599 3.10895 51.9297 3.06754C52.0275 3.04424 52.1304 3.02094 52.2333 3.00282L52.4674 2.96141C52.487 2.95894 52.5069 2.95894 52.5265 2.96141L52.6912 2.9381L52.8661 2.91999L53.0642 2.90186H53.0796C53.2666 2.88806 53.4561 2.88115 53.6482 2.88115H77.4392H77.7917C78.3627 2.90799 78.9289 3.00006 79.4793 3.15556H79.4947L79.8034 3.25392L80.1147 3.36524C80.3231 3.44549 80.5237 3.53609 80.7167 3.62411L81.0048 3.77684C81.3795 3.98714 81.7343 4.23149 82.0647 4.50684C82.1444 4.57674 82.2268 4.64664 82.3039 4.71653C82.3811 4.78643 82.4583 4.86149 82.5329 4.93656C82.6813 5.08639 82.8221 5.24364 82.9548 5.40771C83.0191 5.48796 83.086 5.57079 83.1477 5.66657C83.2095 5.76236 83.2686 5.83743 83.3278 5.92544C83.387 6.01346 83.4384 6.10147 83.495 6.18431C83.5928 6.35258 83.6854 6.52602 83.7677 6.70205C83.7813 6.72718 83.7933 6.75312 83.8037 6.77971C83.8397 6.85996 83.8732 6.9428 83.9066 7.03858C83.9401 7.13436 83.9812 7.23532 84.0147 7.33369C84.0177 7.34785 84.0221 7.36171 84.0276 7.37511V7.39064C84.0842 7.56408 84.1304 7.74011 84.1742 7.90838L84.1896 7.98603C84.2076 8.0611 84.2205 8.13618 84.2334 8.21384C84.2462 8.2915 84.2591 8.37693 84.2668 8.45717L84.5549 9.73598H84.2977C84.2977 9.83694 84.2771 9.93531 84.2617 10.0337C84.2462 10.1321 84.2411 10.1812 84.2256 10.2563C84.2256 10.2822 84.2256 10.3055 84.2128 10.334C84.1973 10.4116 84.1793 10.4893 84.1613 10.5669C84.1433 10.6446 84.1176 10.7456 84.0893 10.8258C84.061 10.9061 84.0276 11.0303 83.9915 11.1287C83.9555 11.2271 83.9195 11.3306 83.8783 11.4264H87.1455C87.2981 10.87 87.393 10.2992 87.4285 9.72304C87.4413 9.54443 87.4465 9.36063 87.4465 9.17942C87.413 9.08623 87.413 8.97232 87.413 8.85583Z" fill="#E2E4E6"/>
<path d="M46.9363 7.62113L45.5909 13.7667C44.1787 14.0824 42.9035 14.8432 41.9507 15.9386L43.8132 7.42957L46.9363 7.62113Z" fill="#E2E4E6"/>
<path d="M84.0947 7.62113L85.4402 13.7667C86.8524 14.0824 88.1276 14.8432 89.0804 15.9386L87.2178 7.42957L84.0947 7.62113Z" fill="#E2E4E6"/>
<path d="M87.3978 8.65918H43.623V11.4291H87.3978V8.65918Z" fill="#E2E4E6"/>
<path d="M87.3978 8.65918H43.623V11.6206H87.3978V8.65918Z" fill="#E2E4E6"/>
<path d="M88.877 8.76782L89.5998 11.6801H91.573C92.2676 11.6801 92.831 11.2348 92.831 10.6834V9.94826C92.831 9.29591 92.1647 8.76782 91.3415 8.76782H88.877Z" fill="#E2E4E6"/>
<path d="M42.37 8.6333L41.6472 11.5456H39.674C38.9794 11.5456 38.416 11.1003 38.416 10.5489V9.81374C38.416 9.16139 39.0823 8.6333 39.9055 8.6333H42.37Z" fill="#E2E4E6"/>
<path d="M87.1379 20.8181V26.4692H83.3949C82.0108 26.4692 80.8712 25.1982 80.8712 23.6424C80.8653 22.9067 81.1302 22.1949 81.6147 21.6439C81.8362 21.3869 82.1094 21.1801 82.4163 21.0373C82.7232 20.8945 83.0568 20.8189 83.3949 20.8156L87.1379 20.8181Z" fill="#E2E4E6"/>
<path d="M43.8027 20.8156V26.4692H47.5381C48.9221 26.4692 50.0618 25.1982 50.0618 23.6424C50.0676 22.9067 49.8028 22.1949 49.3183 21.6439C49.0968 21.3869 48.8235 21.1801 48.5166 21.0373C48.2097 20.8945 47.8762 20.8189 47.5381 20.8156H43.8027Z" fill="#E2E4E6"/>
</g>
<defs>
<clipPath id="clip0_769_8615">
<rect width="131" height="64" fill="white"/>
</clipPath>
</defs>
</svg>
