<svg width="200" height="200" viewBox="0 0 200 200" fill="none" xmlns="http://www.w3.org/2000/svg">
<path d="M154.28 98.0801H167.12C168.36 95.5201 168.6 92.6001 168.68 89.7601C168.76 87.1601 168.68 84.5201 167.88 82.0401C165.76 75.4801 158.88 71.6801 152.16 73.4001C151.36 72.4801 150.28 71.8001 149.12 71.5201C147.96 71.2801 144.6 71.6001 144.56 72.7601C144.56 73.1201 144.68 73.4801 144.88 73.8001C146.04 75.9601 147.84 77.7601 149.28 79.7601C152.68 84.4001 153.28 91.7201 154.28 98.0801Z" fill="white"/>
<path d="M167.12 98.4H154.28C154.12 98.4 154 98.28 154 98.16C153.84 97.16 153.68 96.16 153.56 95.12C152.76 89.56 151.92 83.8 149.12 79.96C148.6 79.24 148.04 78.56 147.48 77.92C146.44 76.72 145.48 75.4 144.68 74C144.48 73.64 144.32 73.24 144.32 72.84C144.32 72.52 144.52 72.24 144.76 72.04C145.76 71.28 148.24 71.08 149.24 71.32C150.44 71.6 151.52 72.24 152.32 73.16C155.36 72.44 158.6 72.8 161.4 74.16C164.64 75.76 167.08 78.6 168.2 82C169 84.52 169.08 87.24 169 89.8C168.92 92.64 168.68 95.64 167.4 98.24C167.36 98.32 167.24 98.4 167.12 98.4ZM154.56 97.8H166.96C168.12 95.32 168.32 92.48 168.4 89.76C168.48 86.84 168.36 84.44 167.64 82.16C165.56 75.72 158.84 72.04 152.28 73.72C152.16 73.76 152.08 73.72 152 73.64C151.24 72.76 150.24 72.12 149.12 71.84C148.28 71.68 145.96 71.84 145.16 72.48C144.96 72.64 144.96 72.8 144.92 72.84C144.96 73.16 145.04 73.44 145.2 73.72C146 75.08 146.92 76.36 147.96 77.56C148.52 78.24 149.08 78.92 149.6 79.64C152.48 83.6 153.36 89.44 154.16 95.08C154.28 95.96 154.4 96.88 154.56 97.8Z" fill="#231F20"/>
<path d="M168.36 72.3202C169.96 71.0402 171.52 69.6402 173.4 68.8402C173.56 68.7602 173.72 68.7202 173.88 68.7202C174.04 68.7602 174.16 68.8402 174.28 69.0002C174.76 69.6002 174.88 70.4002 174.68 71.1202C174.48 71.8402 174.12 72.5202 173.64 73.0802C172.44 74.7202 171 76.2002 169.44 77.4802C168.36 78.3202 167.16 79.1202 165.8 79.4002C163.96 79.7602 159.72 77.9602 161.6 75.4802C162.12 74.7602 163.36 74.9202 164.12 74.6802C165.68 74.1602 167.12 73.3602 168.36 72.3202Z" fill="white"/>
<path d="M165.28 79.72C163.88 79.72 161.92 78.96 161.2 77.76C160.84 77.2 160.6 76.32 161.4 75.28C161.84 74.68 162.64 74.6 163.32 74.52C163.56 74.48 163.84 74.44 164.08 74.4C165.6 73.92 166.96 73.12 168.16 72.08L169.04 71.36C170.32 70.32 171.68 69.2 173.24 68.52C173.44 68.4 173.68 68.36 173.92 68.4C174.16 68.44 174.36 68.56 174.52 68.76C175.08 69.44 175.24 70.32 175 71.16C174.76 71.92 174.4 72.6 173.92 73.24C172.68 74.92 171.28 76.4 169.64 77.68C168.68 78.44 167.4 79.36 165.88 79.64C165.68 79.72 165.48 79.72 165.28 79.72ZM168.56 72.56C167.28 73.64 165.84 74.44 164.28 74.96C164 75.04 163.72 75.08 163.44 75.12C162.84 75.2 162.2 75.28 161.92 75.68C161.44 76.32 161.4 76.92 161.72 77.48C162.44 78.6 164.6 79.36 165.8 79.12C167.2 78.84 168.4 77.96 169.32 77.28C170.88 76.04 172.28 74.56 173.48 72.92C173.92 72.36 174.28 71.76 174.48 71.08C174.68 70.44 174.56 69.76 174.12 69.24C174.04 69.16 173.96 69.12 173.88 69.08C173.76 69.08 173.64 69.12 173.56 69.16C172.08 69.8 170.76 70.88 169.48 71.88C169.16 72.08 168.84 72.32 168.56 72.56Z" fill="#231F20"/>
<path d="M75.7197 59.4001C74.7597 55.1201 73.4797 50.8801 73.1197 46.4801C72.7597 42.0801 73.3197 37.4801 75.7997 33.8401C76.7997 32.4001 78.1597 31.0801 79.8397 30.6001C81.3197 30.1601 83.8397 31.0001 83.8397 31.0001C85.0397 30.1201 86.3197 29.2801 87.6397 28.5201C90.4397 27.1201 93.5997 26.6401 96.6797 26.3201C101.08 25.8801 106.16 26.1201 108.96 29.5601C111 32.0801 111.2 35.5601 111.28 38.8001L111.48 47.1201" fill="white"/>
<path d="M75.72 59.7201C75.56 59.7201 75.44 59.6401 75.4 59.4801C75.16 58.3601 74.88 57.2401 74.6 56.1201C73.84 53.0001 73.04 49.8001 72.76 46.5201C72.44 42.9601 72.68 37.8401 75.52 33.6801C76.72 31.9601 78.16 30.7601 79.72 30.3201C81.08 29.9201 83.16 30.4801 83.76 30.6401C84.96 29.7601 86.2 28.9601 87.48 28.2401C90.44 26.7601 93.76 26.2801 96.64 26.0001C102.76 25.4001 106.88 26.4801 109.2 29.3201C111.4 32.0401 111.52 35.9201 111.6 38.7601L111.8 47.0801C111.8 47.2401 111.68 47.4001 111.48 47.4001C111.32 47.4001 111.16 47.2801 111.16 47.0801L110.92 38.8001C110.84 35.3601 110.6 32.0801 108.68 29.7201C106.48 27.0401 102.56 26.0401 96.64 26.6001C93.84 26.8801 90.56 27.3601 87.72 28.7601C86.44 29.5201 85.2 30.3201 84 31.2001C83.92 31.2401 83.8 31.2801 83.72 31.2401C83.68 31.2401 81.28 30.4401 79.92 30.8801C78.12 31.4001 76.84 32.8801 76.04 34.0001C73.32 38.0001 73.08 42.9601 73.4 46.4401C73.68 49.6401 74.44 52.8401 75.2 55.9201C75.48 57.0401 75.76 58.1601 76 59.2801C76.04 59.4401 75.92 59.6001 75.76 59.6401L75.72 59.7201Z" fill="#231F20"/>
<path d="M123.4 173.84C120.44 118.88 125.12 98.4001 122.8 92.7601C117.24 79.4401 84.7598 75.0801 84.7598 75.0801C84.7598 75.0801 49.5998 74.9201 41.7998 93.5201C39.8398 98.2001 26.2798 130.68 24.9598 150.72C24.2798 160.72 34.7198 158.72 43.7598 159.56V173.88L123.4 173.84Z" fill="#294A75"/>
<path d="M101.52 99.8402L98.8399 103.52L109.24 147.2L103.08 159.64L94.0399 147.2L95.3199 103.84L91.4399 99.3602L97.0399 94.9602L101.52 99.8402Z" fill="white"/>
<path d="M103.08 159.92C103 159.92 102.88 159.88 102.84 159.8L93.7997 147.4C93.7597 147.36 93.7597 147.28 93.7597 147.2L95.0397 103.96L91.2397 99.56C91.1997 99.48 91.1597 99.4 91.1597 99.32C91.1597 99.24 91.1997 99.16 91.2797 99.12L96.8797 94.68C96.9997 94.6 97.1597 94.6 97.2797 94.72L101.76 99.64C101.84 99.76 101.84 99.92 101.76 100.04L99.1997 103.6L109.56 147.16C109.56 147.24 109.56 147.32 109.52 147.36L103.36 159.76C103.32 159.84 103.24 159.92 103.08 159.92ZM94.3597 147.12L103.04 159.04L108.92 147.2L98.5197 103.6C98.5197 103.52 98.5197 103.4 98.5597 103.36L101.08 99.92L96.9597 95.4L91.8397 99.44L95.5197 103.68C95.5597 103.72 95.5997 103.8 95.5997 103.88L94.3597 147.12Z" fill="#231F20"/>
<path d="M104.84 77.7602L106.24 86.9602C106.24 86.9602 104.16 96.9202 94.0398 94.6002C88.0398 93.2002 83.0398 89.1602 80.3998 83.6002L79.2798 62.2402C79.2798 62.2402 86.7198 58.2002 84.3598 41.9602C84.3598 41.9602 95.6398 47.4002 110.6 45.3602C110.6 45.3602 114.2 62.0802 113.04 69.8802C111.88 77.6802 104.84 77.7602 104.84 77.7602Z" fill="white"/>
<path d="M97 95.2401C96 95.2401 95 95.1201 94 94.8801C83.84 92.5201 80.16 83.8001 80.12 83.7201C80.12 83.6801 80.08 83.6401 80.08 83.6401L78.96 62.2801C78.96 62.1601 79 62.0401 79.12 62.0001C79.2 61.9601 86.36 57.8001 84.04 42.0401C84.04 41.9201 84.08 41.8001 84.16 41.7601C84.24 41.6801 84.36 41.6801 84.48 41.7201C84.6 41.7601 95.84 47.1201 110.56 45.0801C110.72 45.0401 110.88 45.1601 110.92 45.3201C111.08 46.0001 114.52 62.1601 113.4 69.9601C112.4 76.9201 106.68 77.9201 105.2 78.0801L106.56 86.9201C106.56 86.9601 106.56 87.0001 106.56 87.0401C106.52 87.2001 105.56 91.5601 101.96 93.8801C100.48 94.8001 98.76 95.2801 97 95.2401ZM80.72 83.5201C81 84.2001 84.68 92.0801 94.12 94.2801C97.04 94.9601 99.56 94.6401 101.6 93.3601C104.8 91.3201 105.8 87.4401 105.92 86.9601L104.52 77.8401C104.52 77.7601 104.52 77.6801 104.6 77.6001C104.64 77.5201 104.76 77.4801 104.84 77.4801C105.12 77.4801 111.68 77.3201 112.76 69.8801C113.8 62.7601 110.84 47.9601 110.36 45.7201C97.36 47.4001 87.12 43.4801 84.72 42.4801C86.68 57.1201 80.68 61.7201 79.56 62.4401L80.72 83.5201Z" fill="#231F20"/>
<path d="M99.6399 55.1201C99.6399 55.1201 104.44 63.9201 103 65.2401C101.56 66.5601 97.9199 65.2801 97.9199 65.2801" fill="white"/>
<path d="M101 66.1601C99.9195 66.1201 98.8396 65.9601 97.8396 65.6001C97.6796 65.5601 97.5595 65.4001 97.5995 65.2401C97.6395 65.0801 97.7995 64.9601 97.9595 65.0001C97.9995 65.0001 97.9996 65.0001 98.0396 65.0401C98.0796 65.0401 101.48 66.2401 102.8 65.0801C103.68 64.2801 101.32 58.8801 99.3995 55.3201C99.3195 55.1601 99.3596 55.0001 99.5196 54.9201C99.6796 54.8401 99.8396 54.8801 99.9196 55.0401C100.72 56.5601 104.76 64.1201 103.2 65.5201C102.56 66.0001 101.8 66.2001 101 66.1601Z" fill="#231F20"/>
<path d="M92.3339 55.2365C92.8857 55.2133 93.2901 54.1746 93.2371 52.9165C93.1842 51.6584 92.694 50.6574 92.1422 50.6806C91.5904 50.7038 91.186 51.7425 91.2389 53.0006C91.2919 54.2587 91.7821 55.2597 92.3339 55.2365Z" fill="#231F20"/>
<path d="M106.973 55.8381C107.525 55.8148 107.929 54.7761 107.876 53.5181C107.823 52.26 107.333 51.2589 106.781 51.2822C106.23 51.3054 105.825 52.3441 105.878 53.6022C105.931 54.8602 106.421 55.8613 106.973 55.8381Z" fill="#231F20"/>
<path d="M85.7596 58.0802C84.8796 56.5602 83.6796 55.2002 82.2796 54.1202C81.5596 53.4802 80.6396 53.0802 79.6796 52.9602C78.8796 52.9602 78.1196 53.2002 77.4396 53.6002C75.4396 54.8002 74.0396 56.7602 73.5596 59.0402C73.3196 60.0802 73.3596 61.1602 73.6796 62.2002C74.1596 63.8002 75.3996 65.0802 76.8396 66.0002C78.2796 66.8402 79.8396 67.5202 81.4396 68.0002" fill="white"/>
<path d="M81.4398 68.3601C81.3998 68.3601 81.3598 68.3601 81.3598 68.3601C79.7198 67.8801 78.1598 67.2001 76.6798 66.3201C75.1598 65.4401 73.9998 64.0401 73.3998 62.3601C73.0798 61.2801 73.0398 60.1601 73.2798 59.0401C73.7598 56.6801 75.2398 54.6001 77.3198 53.3601C78.0398 52.9201 78.8798 52.6801 79.7198 52.6401C80.8398 52.6801 81.8398 53.3601 82.4798 53.8401C83.9198 54.9601 85.1198 56.3201 86.0398 57.8801C86.1198 58.0401 86.0798 58.2001 85.9598 58.3201C85.7998 58.4001 85.6398 58.3601 85.5198 58.2401V58.2001C84.6398 56.7201 83.4798 55.4001 82.1198 54.3601C81.5598 53.9201 80.6798 53.3201 79.7198 53.2801C78.9998 53.2801 78.2798 53.5201 77.6798 53.9201C75.7598 55.0401 74.3598 56.9601 73.9198 59.1601C73.7198 60.1601 73.7598 61.2001 74.0398 62.1601C74.5998 63.6801 75.6798 64.9601 77.0798 65.7601C78.5198 66.6001 80.0398 67.2401 81.6398 67.7201C81.7998 67.7601 81.8798 67.9601 81.8398 68.1201C81.7198 68.2801 81.5998 68.3601 81.4398 68.3601Z" fill="#231F20"/>
<path d="M104.84 77.7602C104.84 77.7602 96.8399 79.5202 87.8799 74.9602C87.8799 74.9602 96.5199 88.2402 106.16 86.4002L104.84 77.7602Z" fill="#231F20"/>
<path d="M104.32 86.8802C100.8 86.8802 96.9997 85.0802 93.1997 81.6002C91.1197 79.6402 89.2397 77.4802 87.6397 75.1202C87.5597 75.0002 87.5597 74.8402 87.6797 74.7602C87.7597 74.6402 87.9197 74.6402 88.0397 74.6802C96.7997 79.1202 104.72 77.4802 104.8 77.4402C104.88 77.4402 104.96 77.4402 105.04 77.4802C105.12 77.5202 105.16 77.6002 105.16 77.6802L106.48 86.3202C106.52 86.4802 106.4 86.6402 106.24 86.6802C105.6 86.8002 104.96 86.8802 104.32 86.8802ZM88.7997 75.7602C90.9597 78.6802 98.1197 87.4402 105.84 86.1602L104.6 78.1202C99.2397 78.8402 93.7197 78.0402 88.7997 75.7602Z" fill="#231F20"/>
<path d="M105.16 68.04C105.16 68.04 94.8398 76.04 90.7598 60.52L105.16 68.04Z" fill="white"/>
<path d="M99.3599 70.4002C98.5999 70.4002 97.8399 70.2802 97.1199 70.0402C94.0799 69.0002 91.8399 65.8402 90.4799 60.6002C90.4399 60.4402 90.5199 60.2802 90.6799 60.2402C90.8399 60.2002 90.9999 60.2802 91.0399 60.4402C92.3599 65.4802 94.4799 68.5202 97.2799 69.4802C101.04 70.7602 104.92 67.8402 104.96 67.8002C105.08 67.7202 105.28 67.7202 105.36 67.8402C105.44 67.9602 105.44 68.1602 105.32 68.2402C105.2 68.3602 102.56 70.4002 99.3599 70.4002Z" fill="#231F20"/>
<path d="M149.96 74.0801C149.96 74.0801 157.12 76.7201 157.92 84.6401L149.96 74.0801Z" fill="white"/>
<path d="M157.92 84.9202C157.76 84.9202 157.64 84.8002 157.64 84.6402C156.88 77.0402 149.96 74.3602 149.88 74.3602C149.72 74.3202 149.64 74.1202 149.68 73.9602C149.72 73.8002 149.92 73.7202 150.08 73.8002C150.16 73.8402 157.44 76.6002 158.24 84.6002C158.24 84.7602 158.12 84.9202 157.96 84.9202H157.92Z" fill="#231F20"/>
<path d="M117.8 86.5601C117.8 86.5601 147.68 114.6 148 112.8C149.96 101.28 151.56 91.4801 151.56 91.4801L171.08 92.2801C171.08 92.2801 171.08 147.2 157.96 148.52C148 149.52 113.36 117.08 113.36 117.08L117.8 86.5601Z" fill="#294A75"/>
<path d="M122.8 162.2C122.64 162.2 122.52 162.08 122.48 161.92L116.92 96.6C116.92 96.44 117.04 96.28 117.2 96.28C117.36 96.28 117.52 96.4 117.52 96.56L123.08 161.88C123.12 162.04 123 162.2 122.8 162.2Z" fill="#231F20"/>
<path d="M77.1997 160.84L38.5597 159.6C38.3997 159.6 38.2397 159.44 38.2797 159.28C38.2797 159.12 38.4397 159 38.5997 158.96L76.9197 160.2L77.9997 139.68L51.2797 136.52C51.1997 136.52 51.1197 136.48 51.0797 136.4C51.0397 136.32 50.9997 136.24 51.0397 136.16C54.5197 121.44 59.6797 99.2 59.6397 98.16C59.5997 98 59.7197 97.84 59.8797 97.8C60.0397 97.76 60.1997 97.88 60.2397 98.04C60.4797 98.96 53.3597 129.04 51.7197 135.96L78.3997 139.12C78.5597 139.12 78.6797 139.28 78.6797 139.44L77.5597 160.56C77.5197 160.72 77.3597 160.84 77.1997 160.84Z" fill="#231F20"/>
<path d="M145.76 122.44H145.68C145.52 122.4 145.4 122.24 145.44 122.08L150.8 96.5202C150.84 96.3602 151 96.2402 151.16 96.2802C151.32 96.3202 151.44 96.4802 151.4 96.6402L146.04 122.2C146 122.32 145.88 122.44 145.76 122.44Z" fill="#231F20"/>
<path d="M80.76 107.12C80.52 107.12 80.28 107.04 80.12 106.88C77.28 104.68 72.4 85.44 72.68 83.24C73 80.8 77 77.48 77.16 77.32C77.28 77.2 77.48 77.24 77.6 77.36C77.72 77.48 77.68 77.68 77.56 77.8C77.52 77.84 73.56 81.12 73.28 83.32C73 85.44 77.84 104.4 80.48 106.4C80.6 106.52 80.72 106.56 80.8 106.52C83.2 105.56 89.68 96.52 89.76 96.44C89.88 96.32 90.08 96.28 90.2 96.4C90.32 96.48 90.36 96.68 90.28 96.8C90 97.2 83.64 106.08 81.08 107.08C80.96 107.08 80.84 107.12 80.76 107.12Z" fill="#231F20"/>
<path d="M108.72 103.68H108.6C106.6 103.48 103.36 96.76 103 96C102.92 95.84 103 95.68 103.16 95.6C103.32 95.5201 103.48 95.6 103.56 95.76C104.88 98.52 107.44 102.96 108.68 103.08C108.8 103.08 108.96 103.04 109.04 102.92C110.56 100.96 112.6 90.0801 111.16 84.7201C111.12 84.5601 111.2 84.4 111.36 84.36C111.52 84.32 111.68 84.4 111.72 84.56C113.24 90.2 111.08 101.2 109.48 103.28C109.32 103.52 109.04 103.68 108.72 103.68Z" fill="#231F20"/>
<path d="M152.16 70.68L152.04 70.88C151.44 71.84 150.16 72.16 149.16 71.52L135.2 62.72L137.56 59L151.52 67.8C152.48 68.44 152.76 69.72 152.16 70.68Z" fill="white"/>
<path d="M150.24 72.1599C149.8 72.1599 149.36 72.0399 148.96 71.7999L135 62.9999C134.92 62.9599 134.88 62.8799 134.88 62.7999C134.88 62.7199 134.88 62.6399 134.92 62.5599L137.28 58.8399C137.36 58.7199 137.56 58.6799 137.68 58.7599L151.64 67.5599C152.76 68.2399 153.08 69.7199 152.4 70.8399L152.28 71.0799C151.8 71.7199 151.08 72.1599 150.24 72.1599ZM135.6 62.6399L149.28 71.2799C150.12 71.7999 151.2 71.5599 151.72 70.7199L151.84 70.5199C152.36 69.6799 152.12 68.5999 151.28 68.0799L137.6 59.4399L135.6 62.6399Z" fill="#231F20"/>
<path d="M136.08 56.4764L132.281 62.4985L135.664 64.6325L139.463 58.6104L136.08 56.4764Z" fill="white"/>
<path d="M135.64 64.9201C135.6 64.9201 135.52 64.9201 135.48 64.8801L132.08 62.7601C131.96 62.6801 131.92 62.4801 132 62.3601L135.8 56.3201C135.88 56.2001 136.08 56.1601 136.2 56.2401L139.6 58.3601C139.68 58.4001 139.72 58.4801 139.72 58.5601C139.72 58.6401 139.72 58.7201 139.68 58.8001L135.88 64.8401C135.84 64.9201 135.76 64.9601 135.68 64.9601L135.64 64.9201ZM132.68 62.4001L135.56 64.2401L139.04 58.7201L136.16 56.9201L132.68 62.4001Z" fill="#231F20"/>
<path d="M171.28 81.6799L170.16 83.4399C169.4 84.5999 167.88 84.9599 166.68 84.2399L147.24 71.9599C146.08 71.1999 145.72 69.6799 146.44 68.4799L147.56 66.7199C148.32 65.5599 149.84 65.1999 151.04 65.9199L170.48 78.1999C171.68 78.9199 172 80.4799 171.28 81.6799Z" fill="white"/>
<path d="M168.04 84.8801C167.52 84.8801 167 84.7201 166.56 84.4401L147.12 72.1601C145.8 71.3601 145.4 69.6001 146.24 68.3201C146.24 68.3201 146.24 68.3201 146.24 68.2801L147.36 66.5201C148.2 65.2001 149.92 64.8001 151.24 65.6401L170.68 77.9201C172 78.7201 172.4 80.4801 171.56 81.76C171.56 81.76 171.56 81.7601 171.56 81.8001L170.4 83.6001C170 84.2401 169.36 84.6801 168.64 84.8401C168.44 84.8801 168.24 84.9201 168.04 84.8801ZM149.68 65.8401C148.92 65.8401 148.2 66.2401 147.8 66.8801L146.68 68.6401C146.04 69.6801 146.32 71.0401 147.36 71.6801L166.8 83.9601C167.84 84.6 169.2 84.3201 169.84 83.2801L170.96 81.5201C171.6 80.4801 171.32 79.1201 170.28 78.4801L150.84 66.2001C150.52 65.9601 150.12 65.8401 149.68 65.8401Z" fill="#231F20"/>
<path d="M104.44 40.7201C98.88 49.5601 101.52 61.2401 110.36 66.8001C119.2 72.3601 130.88 69.7201 136.44 60.8801C142 52.0401 139.36 40.3601 130.52 34.8001C121.68 29.2401 110 31.8801 104.44 40.7201Z" fill="white"/>
<path d="M120.4 70.04C109.8 70.04 101.2 61.44 101.2 50.84C101.2 47.2 102.24 43.64 104.16 40.6C109.84 31.64 121.68 28.96 130.64 34.64C139.6 40.32 142.28 52.16 136.6 61.12C133.12 66.68 127 70.04 120.4 70.04ZM104.68 40.88C99.2002 49.56 101.8 61.08 110.48 66.56C119.16 72.04 130.68 69.44 136.16 60.76C141.64 52.08 139.04 40.56 130.36 35.08C126.2 32.44 121.12 31.56 116.32 32.68C111.52 33.76 107.32 36.72 104.68 40.88Z" fill="#231F20"/>
<path d="M128.4 38.1601C135.4 42.5601 137.48 51.8001 133.08 58.8001C128.68 65.8001 119.44 67.8801 112.44 63.4801C105.44 59.0801 103.36 49.8401 107.76 42.8401C112.16 35.8401 121.4 33.7601 128.4 38.1601Z" fill="white"/>
<path d="M120.4 66.0801C111.96 66.0401 105.16 59.2001 105.16 50.8001C105.2 42.3601 112.04 35.5601 120.44 35.5601C123.32 35.5601 126.12 36.4001 128.56 37.9201C135.68 42.4001 137.84 51.8401 133.32 58.9601C130.56 63.4001 125.64 66.1201 120.4 66.0801ZM120.44 36.1601C112.32 36.1201 105.76 42.6801 105.72 50.8001C105.68 58.9201 112.24 65.4801 120.36 65.5201C128.48 65.5601 135.04 59.0001 135.08 50.8801C135.08 45.8401 132.52 41.1201 128.24 38.4401C125.92 36.9601 123.2 36.1601 120.44 36.1601Z" fill="#D1D3D4"/>
<path d="M111.64 50.9999C111.76 50.8399 111.88 50.6799 112.04 50.5599C112.52 50.1199 113 49.6799 113.48 49.2399C113.68 48.9599 114.08 48.9199 114.32 49.1199C114.36 49.1599 114.4 49.1999 114.44 49.2399L118.12 52.9999C118.48 53.3599 118.8 53.3999 119.16 52.9999L127.8 44.3999C128.2 43.9999 128.48 43.9999 128.84 44.3999C129.36 44.9199 129.84 45.3999 130.36 45.9199C130.64 46.1199 130.68 46.5199 130.48 46.7599C130.44 46.7999 130.4 46.8399 130.36 46.8799L119.12 58.1199C118.92 58.3599 118.56 58.4399 118.28 58.2399C118.24 58.1999 118.2 58.1599 118.16 58.1199C116.04 55.9599 113.92 53.7599 111.84 51.5599C111.76 51.4399 111.68 51.3599 111.64 51.2399V50.9999Z" fill="#3BDBC0"/>
<path d="M118.68 58.6799C118.4 58.6799 118.16 58.5599 118 58.3599C115.88 56.1999 113.76 53.9999 111.68 51.7999C111.6 51.7199 111.52 51.5999 111.48 51.5199L111.44 51.4399C111.4 51.3999 111.4 51.3199 111.4 51.2799V50.9999C111.4 50.9199 111.44 50.8799 111.48 50.7999L111.6 50.6799C111.68 50.5599 111.8 50.4399 111.88 50.3599C112.24 50.0399 112.56 49.7199 112.92 49.4399L113.32 49.0799C113.64 48.7199 114.2 48.6799 114.6 48.9999C114.64 49.0399 114.68 49.0799 114.72 49.1199L118.4 52.8799C118.48 52.9599 118.6 53.0399 118.72 53.0799C118.84 53.0399 118.96 52.9999 119.04 52.8799L127.68 44.2799C127.88 44.0799 128.12 43.9199 128.4 43.9199C128.68 43.9599 128.96 44.0799 129.12 44.2799L130.64 45.7999C131.04 46.1199 131.08 46.6799 130.76 47.0799C130.72 47.1199 130.68 47.1599 130.64 47.1999L119.4 58.4399C119.16 58.5599 118.92 58.6799 118.68 58.6799ZM111.96 51.1999L112 51.2399C112.04 51.2799 112.08 51.3599 112.12 51.3999C114.24 53.5999 116.32 55.7599 118.44 57.9599C118.52 58.0399 118.6 58.0799 118.68 58.1199C118.76 58.1199 118.88 58.0399 118.92 57.9599L130.16 46.7199C130.36 46.5199 130.36 46.3999 130.16 46.1599L128.64 44.6399C128.56 44.5599 128.44 44.4799 128.32 44.4399C128.2 44.4799 128.08 44.5199 128 44.6399L119.36 53.2399C119.16 53.4399 118.92 53.5999 118.64 53.5999C118.36 53.5599 118.08 53.4399 117.92 53.2399L114.24 49.4799C114 49.2399 113.92 49.2399 113.68 49.4799L113.28 49.8399C112.92 50.1599 112.6 50.4399 112.24 50.7599C112.16 50.8399 112.08 50.9199 112 51.0399L111.96 51.1199V51.1999Z" fill="#3BDBC0"/>
<path d="M103.32 118.24L139.76 124.92L129.36 173.84L91.4399 169.44L103.32 118.24Z" fill="#231F20"/>
<path d="M129.36 174.16L91.4001 169.76C91.2401 169.76 91.1201 169.6 91.1201 169.44V169.4L103 118.2C103.04 118.04 103.2 117.96 103.36 117.96L139.8 124.64C139.88 124.64 139.96 124.68 140 124.76C140.04 124.84 140.04 124.92 140.04 125L129.64 173.92C129.6 174.04 129.52 174.12 129.36 174.16ZM91.8001 169.2L129.12 173.52L139.4 125.2L103.56 118.64L91.8001 169.2Z" fill="#231F20"/>
<path d="M113.32 121.44L115 117.52L130.8 120.32V124.44L113.32 121.44Z" fill="#231F20"/>
<path d="M130.8 124.76H130.76L113.28 121.76C113.12 121.72 113 121.56 113.04 121.4V121.36L114.72 117.44C114.76 117.32 114.92 117.24 115.04 117.28L130.84 120.08C131 120.12 131.08 120.24 131.08 120.36V124.48C131.08 124.56 131.04 124.64 130.96 124.72C130.92 124.76 130.88 124.76 130.8 124.76ZM113.72 121.24L130.48 124.12V120.6L115.2 117.88L113.72 121.24Z" fill="#231F20"/>
<path d="M157.88 76.2799C158.52 75.9599 158.68 75.1599 158.72 74.4399C158.76 73.0799 158.52 71.7599 158.04 70.4799L160.4 75.6399C160.84 76.6399 161.32 77.6799 162.12 78.4399C162.92 79.1999 164.16 79.5999 165.16 79.1599C166.64 78.5199 166.88 76.5199 166.68 74.9599C166.48 73.4799 166.12 72.0399 165.52 70.6399C165 69.4399 164.28 68.2399 163.16 67.5599C162.04 66.8799 160.44 66.7999 159.52 67.7199C158.52 66.1599 156.36 63.3199 154.12 63.8799C152.64 64.2399 152.8 65.0799 153.12 66.4399C153.48 68.3199 155.24 77.5199 157.88 76.2799Z" fill="white"/>
<path d="M164.28 79.6399C163.4 79.5999 162.56 79.2399 161.92 78.6399C161.08 77.8399 160.56 76.7199 160.12 75.7599L158.96 73.2799C159 73.6799 159 74.0399 159 74.4399C158.96 75.5199 158.6 76.2399 158 76.5199C157.6 76.7199 157.16 76.7199 156.76 76.5199C154.96 75.6399 153.76 70.9599 152.92 66.9999L152.8 66.5199C152.52 65.2399 152.24 64.0399 154.04 63.5999C155.76 63.1599 157.68 64.4399 159.6 67.2799C160.72 66.4799 162.32 66.6799 163.32 67.3199C164.32 67.9599 165.12 68.9999 165.8 70.5199C166.4 71.9199 166.8 73.3999 167 74.9199C167.12 75.7599 167.32 78.5599 165.32 79.4399C164.96 79.5999 164.64 79.6799 164.28 79.6399ZM158.04 70.1999C158.16 70.1999 158.28 70.2799 158.32 70.3599L160.68 75.5199C161.08 76.4399 161.56 77.4799 162.36 78.1999C163.04 78.8399 164.12 79.2799 165.08 78.8799C166.68 78.1599 166.48 75.7199 166.4 74.9599C166.2 73.5199 165.84 72.0799 165.24 70.7199C164.64 69.2799 163.88 68.3199 163 67.7999C162.12 67.2799 160.6 67.0799 159.72 67.9199C159.64 67.9999 159.56 67.9999 159.48 67.9999C159.4 67.9999 159.32 67.9599 159.28 67.8799C158 65.9199 156.08 63.7199 154.2 64.1599C153.04 64.4399 153.08 64.9599 153.4 66.3599L153.52 66.8399C153.96 68.8799 155.28 75.0799 157.04 75.9599C157.28 76.0799 157.52 76.0799 157.76 75.9599C158.28 75.7199 158.4 74.9599 158.44 74.3999C158.48 73.0799 158.24 71.7999 157.8 70.5599C157.72 70.3999 157.8 70.2399 157.96 70.1599C157.96 70.1999 158 70.1999 158.04 70.1999Z" fill="#231F20"/>
<path d="M107.84 140.96C107.56 137.76 97.1999 142.12 97.1999 142.12C97.1999 142.12 100.12 135.48 98.5599 134.24C96.9999 133 91.7199 141.04 91.7199 141.04C91.7199 141.04 84.3599 142.2 78.3199 142.12L77.3999 156.96C92.2799 155.88 101.92 155.48 102.36 154.52C103.24 152.6 108.12 144.12 107.84 140.96Z" fill="white"/>
<path d="M77.3601 157.24C77.2001 157.24 77.0801 157.12 77.0801 156.96L78.0001 142.08C78.0001 141.92 78.1201 141.84 78.2801 141.84C83.8001 141.92 90.5201 140.96 91.5201 140.8C92.2001 139.76 96.0001 134.2 97.9601 133.88C98.2401 133.84 98.4801 133.88 98.7201 134.04C100.16 135.16 98.4401 139.88 97.6801 141.64C99.6001 140.88 105.48 138.72 107.44 139.88C107.84 140.12 108.08 140.52 108.12 140.96C108.36 143.68 105.12 149.8 103.4 153.12C103.04 153.8 102.76 154.32 102.6 154.68C102.2 155.56 97.9601 155.88 85.7201 156.72C83.1601 156.84 80.4001 157 77.3601 157.24ZM78.5601 142.36L77.6801 156.64C80.5601 156.44 83.2401 156.24 85.7201 156.08C94.6001 155.48 101.64 155 102.12 154.36C102.28 154.04 102.56 153.48 102.92 152.8C104.52 149.8 107.8 143.52 107.56 140.96C107.56 140.68 107.4 140.44 107.16 140.32C105.48 139.32 99.4801 141.44 97.3201 142.36C97.2001 142.4 97.0801 142.36 97.0001 142.28C96.9201 142.2 96.9201 142.08 96.9601 141.96C98.0801 139.48 99.4001 135.2 98.4001 134.4C98.3201 134.32 98.2001 134.32 98.0801 134.36C96.5601 134.6 93.1201 139.36 91.9601 141.16C91.9201 141.24 91.8401 141.28 91.7601 141.28C91.6801 141.28 84.4801 142.44 78.5601 142.36Z" fill="#231F20"/>
</svg>
